G04 #@! TF.GenerationSoftware,KiCad,Pcbnew,(5.1.4)-1*
G04 #@! TF.CreationDate,2019-11-04T21:22:20-05:00*
G04 #@! TF.ProjectId,ButtonBoard,42757474-6f6e-4426-9f61-72642e6b6963,rev?*
G04 #@! TF.SameCoordinates,Original*
G04 #@! TF.FileFunction,Legend,Bot*
G04 #@! TF.FilePolarity,Positive*
%FSLAX46Y46*%
G04 Gerber Fmt 4.6, Leading zero omitted, Abs format (unit mm)*
G04 Created by KiCad (PCBNEW (5.1.4)-1) date 2019-11-04 21:22:20*
%MOMM*%
%LPD*%
G04 APERTURE LIST*
%ADD10C,0.150000*%
%ADD11C,0.127000*%
G04 APERTURE END LIST*
D10*
X17480952Y372619D02*
X17480952Y1372619D01*
X17100000Y1372619D01*
X17004761Y1325000D01*
X16957142Y1277380D01*
X16909523Y1182142D01*
X16909523Y1039285D01*
X16957142Y944047D01*
X17004761Y896428D01*
X17100000Y848809D01*
X17480952Y848809D01*
X15909523Y372619D02*
X16242857Y848809D01*
X16480952Y372619D02*
X16480952Y1372619D01*
X16099999Y1372619D01*
X16004761Y1325000D01*
X15957142Y1277380D01*
X15909523Y1182142D01*
X15909523Y1039285D01*
X15957142Y944047D01*
X16004761Y896428D01*
X16099999Y848809D01*
X16480952Y848809D01*
X15480952Y896428D02*
X15147619Y896428D01*
X15004761Y372619D02*
X15480952Y372619D01*
X15480952Y1372619D01*
X15004761Y1372619D01*
X14719047Y1372619D02*
X14147619Y1372619D01*
X14433333Y372619D02*
X14433333Y1372619D01*
X13623809Y1372619D02*
X13433333Y1372619D01*
X13338095Y1325000D01*
X13242857Y1229761D01*
X13195238Y1039285D01*
X13195238Y705952D01*
X13242857Y515476D01*
X13338095Y420238D01*
X13433333Y372619D01*
X13623809Y372619D01*
X13719047Y420238D01*
X13814285Y515476D01*
X13861904Y705952D01*
X13861904Y1039285D01*
X13814285Y1229761D01*
X13719047Y1325000D01*
X13623809Y1372619D01*
X12909523Y1372619D02*
X12338095Y1372619D01*
X12623809Y372619D02*
X12623809Y1372619D01*
X11814285Y848809D02*
X11814285Y372619D01*
X12147619Y1372619D02*
X11814285Y848809D01*
X11480952Y1372619D01*
X11147619Y372619D02*
X11147619Y1372619D01*
X10766666Y1372619D01*
X10671428Y1325000D01*
X10623809Y1277380D01*
X10576190Y1182142D01*
X10576190Y1039285D01*
X10623809Y944047D01*
X10671428Y896428D01*
X10766666Y848809D01*
X11147619Y848809D01*
X10147619Y896428D02*
X9814285Y896428D01*
X9671428Y372619D02*
X10147619Y372619D01*
X10147619Y1372619D01*
X9671428Y1372619D01*
X14957142Y-753571D02*
X14814285Y-801190D01*
X14766666Y-848809D01*
X14719047Y-944047D01*
X14719047Y-1086904D01*
X14766666Y-1182142D01*
X14814285Y-1229761D01*
X14909523Y-1277380D01*
X15290476Y-1277380D01*
X15290476Y-277380D01*
X14957142Y-277380D01*
X14861904Y-325000D01*
X14814285Y-372619D01*
X14766666Y-467857D01*
X14766666Y-563095D01*
X14814285Y-658333D01*
X14861904Y-705952D01*
X14957142Y-753571D01*
X15290476Y-753571D01*
X14338095Y-991666D02*
X13861904Y-991666D01*
X14433333Y-1277380D02*
X14100000Y-277380D01*
X13766666Y-1277380D01*
X12861904Y-1182142D02*
X12909523Y-1229761D01*
X13052380Y-1277380D01*
X13147619Y-1277380D01*
X13290476Y-1229761D01*
X13385714Y-1134523D01*
X13433333Y-1039285D01*
X13480952Y-848809D01*
X13480952Y-705952D01*
X13433333Y-515476D01*
X13385714Y-420238D01*
X13290476Y-325000D01*
X13147619Y-277380D01*
X13052380Y-277380D01*
X12909523Y-325000D01*
X12861904Y-372619D01*
X12433333Y-1277380D02*
X12433333Y-277380D01*
X11861904Y-1277380D02*
X12290476Y-705952D01*
X11861904Y-277380D02*
X12433333Y-848809D01*
X-3064285Y-16278571D02*
X-2564285Y-15564285D01*
X-2207142Y-16278571D02*
X-2207142Y-14778571D01*
X-2778571Y-14778571D01*
X-2921428Y-14850000D01*
X-2992857Y-14921428D01*
X-3064285Y-15064285D01*
X-3064285Y-15278571D01*
X-2992857Y-15421428D01*
X-2921428Y-15492857D01*
X-2778571Y-15564285D01*
X-2207142Y-15564285D01*
X500000Y-16278571D02*
X500000Y-14778571D01*
X0Y-15850000D01*
X-500000Y-14778571D01*
X-500000Y-16278571D01*
X2135714Y-16278571D02*
X2850000Y-16278571D01*
X2850000Y-14778571D01*
X28961904Y-14342857D02*
X27438095Y-14342857D01*
X26561904Y-14342857D02*
X25038095Y-14342857D01*
X25800000Y-15104761D02*
X25800000Y-13580952D01*
D11*
X3111000Y-5238000D02*
X3111000Y-8540000D01*
X4889000Y-5238000D02*
X3111000Y-5238000D01*
X4889000Y-8540000D02*
X4889000Y-5238000D01*
X3111000Y-8540000D02*
X4889000Y-8540000D01*
X15861000Y-10738000D02*
X15861000Y-14040000D01*
X17639000Y-10738000D02*
X15861000Y-10738000D01*
X17639000Y-14040000D02*
X17639000Y-10738000D01*
X15861000Y-14040000D02*
X17639000Y-14040000D01*
X29111000Y-7540000D02*
X30889000Y-7540000D01*
X30889000Y-7540000D02*
X30889000Y-4238000D01*
X30889000Y-4238000D02*
X29111000Y-4238000D01*
X29111000Y-4238000D02*
X29111000Y-7540000D01*
X-2111000Y-8540000D02*
X-2111000Y-5238000D01*
X-3889000Y-8540000D02*
X-2111000Y-8540000D01*
X-3889000Y-5238000D02*
X-3889000Y-8540000D01*
X-2111000Y-5238000D02*
X-3889000Y-5238000D01*
X10889000Y-10738000D02*
X9111000Y-10738000D01*
X9111000Y-10738000D02*
X9111000Y-14040000D01*
X9111000Y-14040000D02*
X10889000Y-14040000D01*
X10889000Y-14040000D02*
X10889000Y-10738000D01*
X23889000Y-7540000D02*
X23889000Y-4238000D01*
X22111000Y-7540000D02*
X23889000Y-7540000D01*
X22111000Y-4238000D02*
X22111000Y-7540000D01*
X23889000Y-4238000D02*
X22111000Y-4238000D01*
D10*
X4000000Y-3000000D02*
X4000000Y3000000D01*
X4000000Y3000000D02*
X-4000000Y3000000D01*
X-4000000Y3000000D02*
X-4000000Y-3000000D01*
X-4000000Y-3000000D02*
X4000000Y-3000000D01*
X1000000Y0D02*
G75*
G03X1000000Y0I-1000000J0D01*
G01*
X14208000Y-6350000D02*
G75*
G03X14208000Y-6350000I-1000000J0D01*
G01*
X9208000Y-9350000D02*
X17208000Y-9350000D01*
X9208000Y-3350000D02*
X9208000Y-9350000D01*
X17208000Y-3350000D02*
X9208000Y-3350000D01*
X17208000Y-9350000D02*
X17208000Y-3350000D01*
X30416000Y-3000000D02*
X30416000Y3000000D01*
X30416000Y3000000D02*
X22416000Y3000000D01*
X22416000Y3000000D02*
X22416000Y-3000000D01*
X22416000Y-3000000D02*
X30416000Y-3000000D01*
X27416000Y0D02*
G75*
G03X27416000Y0I-1000000J0D01*
G01*
X2261904Y-10228571D02*
X2119047Y-10276190D01*
X2071428Y-10323809D01*
X2023809Y-10419047D01*
X2023809Y-10561904D01*
X2071428Y-10657142D01*
X2119047Y-10704761D01*
X2214285Y-10752380D01*
X2595238Y-10752380D01*
X2595238Y-9752380D01*
X2261904Y-9752380D01*
X2166666Y-9800000D01*
X2119047Y-9847619D01*
X2071428Y-9942857D01*
X2071428Y-10038095D01*
X2119047Y-10133333D01*
X2166666Y-10180952D01*
X2261904Y-10228571D01*
X2595238Y-10228571D01*
X1166666Y-10085714D02*
X1166666Y-10752380D01*
X1595238Y-10085714D02*
X1595238Y-10609523D01*
X1547619Y-10704761D01*
X1452380Y-10752380D01*
X1309523Y-10752380D01*
X1214285Y-10704761D01*
X1166666Y-10657142D01*
X833333Y-10085714D02*
X452380Y-10085714D01*
X690476Y-9752380D02*
X690476Y-10609523D01*
X642857Y-10704761D01*
X547619Y-10752380D01*
X452380Y-10752380D01*
X261904Y-10085714D02*
X-119047Y-10085714D01*
X119047Y-9752380D02*
X119047Y-10609523D01*
X71428Y-10704761D01*
X-23809Y-10752380D01*
X-119047Y-10752380D01*
X-595238Y-10752380D02*
X-500000Y-10704761D01*
X-452380Y-10657142D01*
X-404761Y-10561904D01*
X-404761Y-10276190D01*
X-452380Y-10180952D01*
X-500000Y-10133333D01*
X-595238Y-10085714D01*
X-738095Y-10085714D01*
X-833333Y-10133333D01*
X-880952Y-10180952D01*
X-928571Y-10276190D01*
X-928571Y-10561904D01*
X-880952Y-10657142D01*
X-833333Y-10704761D01*
X-738095Y-10752380D01*
X-595238Y-10752380D01*
X-1357142Y-10085714D02*
X-1357142Y-10752380D01*
X-1357142Y-10180952D02*
X-1404761Y-10133333D01*
X-1500000Y-10085714D01*
X-1642857Y-10085714D01*
X-1738095Y-10133333D01*
X-1785714Y-10228571D01*
X-1785714Y-10752380D01*
X-2214285Y-10704761D02*
X-2309523Y-10752380D01*
X-2500000Y-10752380D01*
X-2595238Y-10704761D01*
X-2642857Y-10609523D01*
X-2642857Y-10561904D01*
X-2595238Y-10466666D01*
X-2500000Y-10419047D01*
X-2357142Y-10419047D01*
X-2261904Y-10371428D01*
X-2214285Y-10276190D01*
X-2214285Y-10228571D01*
X-2261904Y-10133333D01*
X-2357142Y-10085714D01*
X-2500000Y-10085714D01*
X-2595238Y-10133333D01*
X28976190Y-9992380D02*
X28976190Y-8992380D01*
X28595238Y-8992380D01*
X28500000Y-9040000D01*
X28452380Y-9087619D01*
X28404761Y-9182857D01*
X28404761Y-9325714D01*
X28452380Y-9420952D01*
X28500000Y-9468571D01*
X28595238Y-9516190D01*
X28976190Y-9516190D01*
X27833333Y-9992380D02*
X27928571Y-9944761D01*
X27976190Y-9897142D01*
X28023809Y-9801904D01*
X28023809Y-9516190D01*
X27976190Y-9420952D01*
X27928571Y-9373333D01*
X27833333Y-9325714D01*
X27690476Y-9325714D01*
X27595238Y-9373333D01*
X27547619Y-9420952D01*
X27500000Y-9516190D01*
X27500000Y-9801904D01*
X27547619Y-9897142D01*
X27595238Y-9944761D01*
X27690476Y-9992380D01*
X27833333Y-9992380D01*
X27166666Y-9325714D02*
X26976190Y-9992380D01*
X26785714Y-9516190D01*
X26595238Y-9992380D01*
X26404761Y-9325714D01*
X25642857Y-9944761D02*
X25738095Y-9992380D01*
X25928571Y-9992380D01*
X26023809Y-9944761D01*
X26071428Y-9849523D01*
X26071428Y-9468571D01*
X26023809Y-9373333D01*
X25928571Y-9325714D01*
X25738095Y-9325714D01*
X25642857Y-9373333D01*
X25595238Y-9468571D01*
X25595238Y-9563809D01*
X26071428Y-9659047D01*
X25166666Y-9992380D02*
X25166666Y-9325714D01*
X25166666Y-9516190D02*
X25119047Y-9420952D01*
X25071428Y-9373333D01*
X24976190Y-9325714D01*
X24880952Y-9325714D01*
X2657142Y-6722333D02*
X2704761Y-6674714D01*
X2752380Y-6531857D01*
X2752380Y-6436619D01*
X2704761Y-6293761D01*
X2609523Y-6198523D01*
X2514285Y-6150904D01*
X2323809Y-6103285D01*
X2180952Y-6103285D01*
X1990476Y-6150904D01*
X1895238Y-6198523D01*
X1800000Y-6293761D01*
X1752380Y-6436619D01*
X1752380Y-6531857D01*
X1800000Y-6674714D01*
X1847619Y-6722333D01*
X1847619Y-7103285D02*
X1800000Y-7150904D01*
X1752380Y-7246142D01*
X1752380Y-7484238D01*
X1800000Y-7579476D01*
X1847619Y-7627095D01*
X1942857Y-7674714D01*
X2038095Y-7674714D01*
X2180952Y-7627095D01*
X2752380Y-7055666D01*
X2752380Y-7674714D01*
X15407142Y-12222333D02*
X15454761Y-12174714D01*
X15502380Y-12031857D01*
X15502380Y-11936619D01*
X15454761Y-11793761D01*
X15359523Y-11698523D01*
X15264285Y-11650904D01*
X15073809Y-11603285D01*
X14930952Y-11603285D01*
X14740476Y-11650904D01*
X14645238Y-11698523D01*
X14550000Y-11793761D01*
X14502380Y-11936619D01*
X14502380Y-12031857D01*
X14550000Y-12174714D01*
X14597619Y-12222333D01*
X14835714Y-13079476D02*
X15502380Y-13079476D01*
X14454761Y-12841380D02*
X15169047Y-12603285D01*
X15169047Y-13222333D01*
X28657142Y-5722333D02*
X28704761Y-5674714D01*
X28752380Y-5531857D01*
X28752380Y-5436619D01*
X28704761Y-5293761D01*
X28609523Y-5198523D01*
X28514285Y-5150904D01*
X28323809Y-5103285D01*
X28180952Y-5103285D01*
X27990476Y-5150904D01*
X27895238Y-5198523D01*
X27800000Y-5293761D01*
X27752380Y-5436619D01*
X27752380Y-5531857D01*
X27800000Y-5674714D01*
X27847619Y-5722333D01*
X27752380Y-6579476D02*
X27752380Y-6389000D01*
X27800000Y-6293761D01*
X27847619Y-6246142D01*
X27990476Y-6150904D01*
X28180952Y-6103285D01*
X28561904Y-6103285D01*
X28657142Y-6150904D01*
X28704761Y-6198523D01*
X28752380Y-6293761D01*
X28752380Y-6484238D01*
X28704761Y-6579476D01*
X28657142Y-6627095D01*
X28561904Y-6674714D01*
X28323809Y-6674714D01*
X28228571Y-6627095D01*
X28180952Y-6579476D01*
X28133333Y-6484238D01*
X28133333Y-6293761D01*
X28180952Y-6198523D01*
X28228571Y-6150904D01*
X28323809Y-6103285D01*
X-847619Y-6722333D02*
X-1323809Y-6389000D01*
X-847619Y-6150904D02*
X-1847619Y-6150904D01*
X-1847619Y-6531857D01*
X-1800000Y-6627095D01*
X-1752380Y-6674714D01*
X-1657142Y-6722333D01*
X-1514285Y-6722333D01*
X-1419047Y-6674714D01*
X-1371428Y-6627095D01*
X-1323809Y-6531857D01*
X-1323809Y-6150904D01*
X-1752380Y-7103285D02*
X-1800000Y-7150904D01*
X-1847619Y-7246142D01*
X-1847619Y-7484238D01*
X-1800000Y-7579476D01*
X-1752380Y-7627095D01*
X-1657142Y-7674714D01*
X-1561904Y-7674714D01*
X-1419047Y-7627095D01*
X-847619Y-7055666D01*
X-847619Y-7674714D01*
X12152380Y-12222333D02*
X11676190Y-11889000D01*
X12152380Y-11650904D02*
X11152380Y-11650904D01*
X11152380Y-12031857D01*
X11200000Y-12127095D01*
X11247619Y-12174714D01*
X11342857Y-12222333D01*
X11485714Y-12222333D01*
X11580952Y-12174714D01*
X11628571Y-12127095D01*
X11676190Y-12031857D01*
X11676190Y-11650904D01*
X11485714Y-13079476D02*
X12152380Y-13079476D01*
X11104761Y-12841380D02*
X11819047Y-12603285D01*
X11819047Y-13222333D01*
X25152380Y-5722333D02*
X24676190Y-5389000D01*
X25152380Y-5150904D02*
X24152380Y-5150904D01*
X24152380Y-5531857D01*
X24200000Y-5627095D01*
X24247619Y-5674714D01*
X24342857Y-5722333D01*
X24485714Y-5722333D01*
X24580952Y-5674714D01*
X24628571Y-5627095D01*
X24676190Y-5531857D01*
X24676190Y-5150904D01*
X24152380Y-6579476D02*
X24152380Y-6389000D01*
X24200000Y-6293761D01*
X24247619Y-6246142D01*
X24390476Y-6150904D01*
X24580952Y-6103285D01*
X24961904Y-6103285D01*
X25057142Y-6150904D01*
X25104761Y-6198523D01*
X25152380Y-6293761D01*
X25152380Y-6484238D01*
X25104761Y-6579476D01*
X25057142Y-6627095D01*
X24961904Y-6674714D01*
X24723809Y-6674714D01*
X24628571Y-6627095D01*
X24580952Y-6579476D01*
X24533333Y-6484238D01*
X24533333Y-6293761D01*
X24580952Y-6198523D01*
X24628571Y-6150904D01*
X24723809Y-6103285D01*
X761904Y3795238D02*
X619047Y3747619D01*
X380952Y3747619D01*
X285714Y3795238D01*
X238095Y3842857D01*
X190476Y3938095D01*
X190476Y4033333D01*
X238095Y4128571D01*
X285714Y4176190D01*
X380952Y4223809D01*
X571428Y4271428D01*
X666666Y4319047D01*
X714285Y4366666D01*
X761904Y4461904D01*
X761904Y4557142D01*
X714285Y4652380D01*
X666666Y4700000D01*
X571428Y4747619D01*
X333333Y4747619D01*
X190476Y4700000D01*
X-190476Y4652380D02*
X-238095Y4700000D01*
X-333333Y4747619D01*
X-571428Y4747619D01*
X-666666Y4700000D01*
X-714285Y4652380D01*
X-761904Y4557142D01*
X-761904Y4461904D01*
X-714285Y4319047D01*
X-142857Y3747619D01*
X-761904Y3747619D01*
X13961904Y-3004761D02*
X13819047Y-3052380D01*
X13580952Y-3052380D01*
X13485714Y-3004761D01*
X13438095Y-2957142D01*
X13390476Y-2861904D01*
X13390476Y-2766666D01*
X13438095Y-2671428D01*
X13485714Y-2623809D01*
X13580952Y-2576190D01*
X13771428Y-2528571D01*
X13866666Y-2480952D01*
X13914285Y-2433333D01*
X13961904Y-2338095D01*
X13961904Y-2242857D01*
X13914285Y-2147619D01*
X13866666Y-2100000D01*
X13771428Y-2052380D01*
X13533333Y-2052380D01*
X13390476Y-2100000D01*
X12533333Y-2385714D02*
X12533333Y-3052380D01*
X12771428Y-2004761D02*
X13009523Y-2719047D01*
X12390476Y-2719047D01*
X27361904Y3795238D02*
X27219047Y3747619D01*
X26980952Y3747619D01*
X26885714Y3795238D01*
X26838095Y3842857D01*
X26790476Y3938095D01*
X26790476Y4033333D01*
X26838095Y4128571D01*
X26885714Y4176190D01*
X26980952Y4223809D01*
X27171428Y4271428D01*
X27266666Y4319047D01*
X27314285Y4366666D01*
X27361904Y4461904D01*
X27361904Y4557142D01*
X27314285Y4652380D01*
X27266666Y4700000D01*
X27171428Y4747619D01*
X26933333Y4747619D01*
X26790476Y4700000D01*
X25933333Y4747619D02*
X26123809Y4747619D01*
X26219047Y4700000D01*
X26266666Y4652380D01*
X26361904Y4509523D01*
X26409523Y4319047D01*
X26409523Y3938095D01*
X26361904Y3842857D01*
X26314285Y3795238D01*
X26219047Y3747619D01*
X26028571Y3747619D01*
X25933333Y3795238D01*
X25885714Y3842857D01*
X25838095Y3938095D01*
X25838095Y4176190D01*
X25885714Y4271428D01*
X25933333Y4319047D01*
X26028571Y4366666D01*
X26219047Y4366666D01*
X26314285Y4319047D01*
X26361904Y4271428D01*
X26409523Y4176190D01*
M02*
