G04 #@! TF.GenerationSoftware,KiCad,Pcbnew,(5.1.4)-1*
G04 #@! TF.CreationDate,2019-11-04T21:22:19-05:00*
G04 #@! TF.ProjectId,ButtonBoard,42757474-6f6e-4426-9f61-72642e6b6963,rev?*
G04 #@! TF.SameCoordinates,Original*
G04 #@! TF.FileFunction,Copper,L2,Bot*
G04 #@! TF.FilePolarity,Positive*
%FSLAX46Y46*%
G04 Gerber Fmt 4.6, Leading zero omitted, Abs format (unit mm)*
G04 Created by KiCad (PCBNEW (5.1.4)-1) date 2019-11-04 21:22:20*
%MOMM*%
%LPD*%
G04 APERTURE LIST*
%ADD10R,1.400000X1.016000*%
%ADD11R,1.397000X1.016000*%
%ADD12R,3.200000X1.000000*%
%ADD13R,1.651000X1.651000*%
%ADD14C,1.651000*%
%ADD15C,0.800000*%
%ADD16C,0.250000*%
%ADD17C,0.254000*%
G04 APERTURE END LIST*
D10*
X4000000Y-7779000D03*
X4000000Y-6000000D03*
X16750000Y-13279000D03*
X16750000Y-11500000D03*
X30000000Y-5000000D03*
X30000000Y-6779000D03*
D11*
X-3000000Y-6000000D03*
X-3000000Y-7778000D03*
X10000000Y-13278000D03*
X10000000Y-11500000D03*
X23000000Y-5000000D03*
X23000000Y-6778000D03*
D12*
X3400000Y2000000D03*
X3400000Y-2000000D03*
X-3400000Y-2000000D03*
X-3400000Y2000000D03*
X9808000Y-4350000D03*
X9808000Y-8350000D03*
X16608000Y-8350000D03*
X16608000Y-4350000D03*
X29816000Y2000000D03*
X29816000Y-2000000D03*
X23016000Y-2000000D03*
X23016000Y2000000D03*
D13*
X25730000Y-11800000D03*
D14*
X28270000Y-11800000D03*
X-2540000Y-13000000D03*
X0Y-13000000D03*
D13*
X2540000Y-13000000D03*
D15*
X2000000Y-7400000D03*
X13200000Y-6400000D03*
X16400000Y2200000D03*
X8650000Y-550000D03*
X26450000Y2250000D03*
X32950000Y-3850000D03*
X50000Y2250000D03*
X7000000Y-10800038D03*
X800000Y-10400000D03*
X5708104Y-8906904D03*
X-600000Y-9200000D03*
X7263499Y-12336501D03*
X25006250Y-8593750D03*
X22000000Y-11000000D03*
X14200000Y-15000000D03*
X11735250Y-14064750D03*
D16*
X-3400000Y2000000D02*
X3400000Y2000000D01*
X11658000Y-4350000D02*
X16608000Y-4350000D01*
X9808000Y-4350000D02*
X11658000Y-4350000D01*
X24116000Y2000000D02*
X29816000Y2000000D01*
X23016000Y2000000D02*
X24116000Y2000000D01*
X18350000Y-4350000D02*
X16608000Y-4350000D01*
X20000000Y-6000000D02*
X18350000Y-4350000D01*
X20000000Y-10221000D02*
X20000000Y-6000000D01*
X16750000Y-13279000D02*
X16942000Y-13279000D01*
X16942000Y-13279000D02*
X20000000Y-10221000D01*
X30000000Y-10070000D02*
X30000000Y-6779000D01*
X28270000Y-11800000D02*
X30000000Y-10070000D01*
X32000000Y2000000D02*
X29816000Y2000000D01*
X33000000Y1000000D02*
X32000000Y2000000D01*
X33000000Y-4729000D02*
X33000000Y1000000D01*
X30000000Y-6779000D02*
X30950000Y-6779000D01*
X30950000Y-6779000D02*
X33000000Y-4729000D01*
X3400000Y-5400000D02*
X4000000Y-6000000D01*
X3400000Y-2000000D02*
X3400000Y-5400000D01*
X-2300000Y-2000000D02*
X3400000Y-2000000D01*
X-3400000Y-2000000D02*
X-2300000Y-2000000D01*
X-3400000Y-5600000D02*
X-3000000Y-6000000D01*
X-3400000Y-2000000D02*
X-3400000Y-5600000D01*
X11658000Y-8350000D02*
X16608000Y-8350000D01*
X9808000Y-8350000D02*
X11658000Y-8350000D01*
X9808000Y-11308000D02*
X10000000Y-11500000D01*
X9808000Y-8350000D02*
X9808000Y-11308000D01*
X16608000Y-11358000D02*
X16750000Y-11500000D01*
X16608000Y-8350000D02*
X16608000Y-11358000D01*
X23016000Y-2000000D02*
X29816000Y-2000000D01*
X23000000Y-2016000D02*
X23016000Y-2000000D01*
X23000000Y-5000000D02*
X23000000Y-2016000D01*
X30000000Y-2184000D02*
X29816000Y-2000000D01*
X30000000Y-5000000D02*
X30000000Y-2184000D01*
X-3365499Y-12174501D02*
X-2540000Y-13000000D01*
X-4800000Y-10740000D02*
X-3365499Y-12174501D01*
X-4800000Y-6851500D02*
X-4800000Y-10740000D01*
X-3000000Y-6000000D02*
X-3948500Y-6000000D01*
X-3948500Y-6000000D02*
X-4800000Y-6851500D01*
X7000000Y-10058000D02*
X7000000Y-10234353D01*
X9808000Y-8350000D02*
X8708000Y-8350000D01*
X8708000Y-8350000D02*
X7000000Y-10058000D01*
X7000000Y-10234353D02*
X7000000Y-10800038D01*
X2540000Y-11924500D02*
X1015500Y-10400000D01*
X1015500Y-10400000D02*
X800000Y-10400000D01*
X2540000Y-13000000D02*
X2540000Y-11924500D01*
X7600000Y-2000000D02*
X5708104Y-3891896D01*
X5708104Y-8341219D02*
X5708104Y-8906904D01*
X5708104Y-3891896D02*
X5708104Y-8341219D01*
X23016000Y-2000000D02*
X7600000Y-2000000D01*
X23000000Y-8822002D02*
X22000000Y-9822002D01*
X23000000Y-6778000D02*
X23000000Y-8822002D01*
X22000000Y-9822002D02*
X22000000Y-11000000D01*
X22000000Y-12000000D02*
X19000000Y-15000000D01*
X10948500Y-13278000D02*
X10000000Y-13278000D01*
X12670500Y-15000000D02*
X11735250Y-14064750D01*
X19000000Y-15000000D02*
X14200000Y-15000000D01*
X23190500Y-6778000D02*
X23000000Y-6778000D01*
X25730000Y-11800000D02*
X25730000Y-9317500D01*
X25730000Y-9317500D02*
X25006250Y-8593750D01*
X-629500Y-9200000D02*
X-600000Y-9200000D01*
X8204998Y-13278000D02*
X9051500Y-13278000D01*
X-3000000Y-7778000D02*
X-2051500Y-7778000D01*
X-2051500Y-7778000D02*
X-629500Y-9200000D01*
X9051500Y-13278000D02*
X10000000Y-13278000D01*
X-600000Y-9200000D02*
X4126998Y-9200000D01*
X4126998Y-9200000D02*
X7263499Y-12336501D01*
X7263499Y-12336501D02*
X8204998Y-13278000D01*
X25006250Y-8593750D02*
X23190500Y-6778000D01*
X22000000Y-11000000D02*
X22000000Y-12000000D01*
X14200000Y-15000000D02*
X12670500Y-15000000D01*
X11735250Y-14064750D02*
X10948500Y-13278000D01*
D17*
G36*
X32259659Y4311375D02*
G01*
X32509429Y4235965D01*
X32739792Y4113478D01*
X32941980Y3948578D01*
X33108286Y3747550D01*
X33232378Y3518046D01*
X33309531Y3268805D01*
X33340000Y2978911D01*
X33340001Y-14967711D01*
X33311375Y-15259660D01*
X33235965Y-15509429D01*
X33113477Y-15739794D01*
X32948579Y-15941979D01*
X32747546Y-16108288D01*
X32518046Y-16232378D01*
X32268805Y-16309531D01*
X31978911Y-16340000D01*
X-5967721Y-16340000D01*
X-6259660Y-16311375D01*
X-6509429Y-16235965D01*
X-6739794Y-16113477D01*
X-6941979Y-15948579D01*
X-7108288Y-15747546D01*
X-7232378Y-15518046D01*
X-7309531Y-15268805D01*
X-7340000Y-14978911D01*
X-7340000Y-1500000D01*
X-5638072Y-1500000D01*
X-5638072Y-2500000D01*
X-5625812Y-2624482D01*
X-5589502Y-2744180D01*
X-5530537Y-2854494D01*
X-5451185Y-2951185D01*
X-5354494Y-3030537D01*
X-5244180Y-3089502D01*
X-5124482Y-3125812D01*
X-5000000Y-3138072D01*
X-4160000Y-3138072D01*
X-4159999Y-5053383D01*
X-4229037Y-5137506D01*
X-4288002Y-5247820D01*
X-4314031Y-5333626D01*
X-4372776Y-5365026D01*
X-4488501Y-5459999D01*
X-4512299Y-5488997D01*
X-5310998Y-6287697D01*
X-5340001Y-6311499D01*
X-5382822Y-6363677D01*
X-5434974Y-6427224D01*
X-5466259Y-6485754D01*
X-5505546Y-6559254D01*
X-5549003Y-6702515D01*
X-5560000Y-6814168D01*
X-5560000Y-6814178D01*
X-5563676Y-6851500D01*
X-5560000Y-6888823D01*
X-5559999Y-10702668D01*
X-5563676Y-10740000D01*
X-5559999Y-10777333D01*
X-5549002Y-10888986D01*
X-5535820Y-10932442D01*
X-5505546Y-11032246D01*
X-5434974Y-11164276D01*
X-5375845Y-11236324D01*
X-5340000Y-11280001D01*
X-5311002Y-11303799D01*
X-3960374Y-12654428D01*
X-4000500Y-12856153D01*
X-4000500Y-13143847D01*
X-3944374Y-13426012D01*
X-3834279Y-13691806D01*
X-3674445Y-13931015D01*
X-3471015Y-14134445D01*
X-3231806Y-14294279D01*
X-2966012Y-14404374D01*
X-2683847Y-14460500D01*
X-2396153Y-14460500D01*
X-2113988Y-14404374D01*
X-1848194Y-14294279D01*
X-1608985Y-14134445D01*
X-1405555Y-13931015D01*
X-1270000Y-13728142D01*
X-1134445Y-13931015D01*
X-931015Y-14134445D01*
X-691806Y-14294279D01*
X-426012Y-14404374D01*
X-143847Y-14460500D01*
X143847Y-14460500D01*
X426012Y-14404374D01*
X691806Y-14294279D01*
X931015Y-14134445D01*
X1094923Y-13970537D01*
X1124998Y-14069680D01*
X1183963Y-14179994D01*
X1263315Y-14276685D01*
X1360006Y-14356037D01*
X1470320Y-14415002D01*
X1590018Y-14451312D01*
X1714500Y-14463572D01*
X3365500Y-14463572D01*
X3489982Y-14451312D01*
X3609680Y-14415002D01*
X3719994Y-14356037D01*
X3816685Y-14276685D01*
X3896037Y-14179994D01*
X3955002Y-14069680D01*
X3991312Y-13949982D01*
X4003572Y-13825500D01*
X4003572Y-12174500D01*
X3991312Y-12050018D01*
X3955002Y-11930320D01*
X3896037Y-11820006D01*
X3816685Y-11723315D01*
X3719994Y-11643963D01*
X3609680Y-11584998D01*
X3489982Y-11548688D01*
X3365500Y-11536428D01*
X3194326Y-11536428D01*
X3174974Y-11500224D01*
X3141809Y-11459812D01*
X3080001Y-11384499D01*
X3051003Y-11360701D01*
X1796920Y-10106619D01*
X1795226Y-10098102D01*
X1738022Y-9960000D01*
X3812197Y-9960000D01*
X6228499Y-12376303D01*
X6228499Y-12438440D01*
X6268273Y-12638399D01*
X6346294Y-12826757D01*
X6459562Y-12996275D01*
X6603725Y-13140438D01*
X6773243Y-13253706D01*
X6961601Y-13331727D01*
X7161560Y-13371501D01*
X7223697Y-13371501D01*
X7641198Y-13789002D01*
X7664997Y-13818001D01*
X7780722Y-13912974D01*
X7912751Y-13983546D01*
X8056012Y-14027003D01*
X8167665Y-14038000D01*
X8167673Y-14038000D01*
X8204998Y-14041676D01*
X8242323Y-14038000D01*
X8716178Y-14038000D01*
X8770963Y-14140494D01*
X8850315Y-14237185D01*
X8947006Y-14316537D01*
X9057320Y-14375502D01*
X9177018Y-14411812D01*
X9301500Y-14424072D01*
X10698500Y-14424072D01*
X10761250Y-14417892D01*
X10818045Y-14555006D01*
X10931313Y-14724524D01*
X11075476Y-14868687D01*
X11244994Y-14981955D01*
X11433352Y-15059976D01*
X11633311Y-15099750D01*
X11695448Y-15099750D01*
X12106701Y-15511003D01*
X12130499Y-15540001D01*
X12246224Y-15634974D01*
X12378253Y-15705546D01*
X12521514Y-15749003D01*
X12633167Y-15760000D01*
X12633176Y-15760000D01*
X12670499Y-15763676D01*
X12707822Y-15760000D01*
X13496289Y-15760000D01*
X13540226Y-15803937D01*
X13709744Y-15917205D01*
X13898102Y-15995226D01*
X14098061Y-16035000D01*
X14301939Y-16035000D01*
X14501898Y-15995226D01*
X14690256Y-15917205D01*
X14859774Y-15803937D01*
X14903711Y-15760000D01*
X18962678Y-15760000D01*
X19000000Y-15763676D01*
X19037322Y-15760000D01*
X19037333Y-15760000D01*
X19148986Y-15749003D01*
X19292247Y-15705546D01*
X19424276Y-15634974D01*
X19540001Y-15540001D01*
X19563804Y-15510997D01*
X22511003Y-12563799D01*
X22540001Y-12540001D01*
X22634974Y-12424276D01*
X22705546Y-12292247D01*
X22749003Y-12148986D01*
X22760000Y-12037333D01*
X22760000Y-12037325D01*
X22763676Y-12000000D01*
X22760000Y-11962675D01*
X22760000Y-11703711D01*
X22803937Y-11659774D01*
X22917205Y-11490256D01*
X22995226Y-11301898D01*
X23035000Y-11101939D01*
X23035000Y-10898061D01*
X22995226Y-10698102D01*
X22917205Y-10509744D01*
X22803937Y-10340226D01*
X22760000Y-10296289D01*
X22760000Y-10136803D01*
X23511003Y-9385801D01*
X23540001Y-9362003D01*
X23634974Y-9246278D01*
X23705546Y-9114249D01*
X23749003Y-8970988D01*
X23760000Y-8859335D01*
X23763677Y-8822002D01*
X23760000Y-8784669D01*
X23760000Y-8422302D01*
X23971250Y-8633552D01*
X23971250Y-8695689D01*
X24011024Y-8895648D01*
X24089045Y-9084006D01*
X24202313Y-9253524D01*
X24346476Y-9397687D01*
X24515994Y-9510955D01*
X24704352Y-9588976D01*
X24904311Y-9628750D01*
X24966448Y-9628750D01*
X24970001Y-9632303D01*
X24970001Y-10336428D01*
X24904500Y-10336428D01*
X24780018Y-10348688D01*
X24660320Y-10384998D01*
X24550006Y-10443963D01*
X24453315Y-10523315D01*
X24373963Y-10620006D01*
X24314998Y-10730320D01*
X24278688Y-10850018D01*
X24266428Y-10974500D01*
X24266428Y-12625500D01*
X24278688Y-12749982D01*
X24314998Y-12869680D01*
X24373963Y-12979994D01*
X24453315Y-13076685D01*
X24550006Y-13156037D01*
X24660320Y-13215002D01*
X24780018Y-13251312D01*
X24904500Y-13263572D01*
X26555500Y-13263572D01*
X26679982Y-13251312D01*
X26799680Y-13215002D01*
X26909994Y-13156037D01*
X27006685Y-13076685D01*
X27086037Y-12979994D01*
X27145002Y-12869680D01*
X27162829Y-12810909D01*
X27438696Y-12810909D01*
X27513367Y-13057481D01*
X27773228Y-13180931D01*
X28052180Y-13251313D01*
X28339502Y-13265921D01*
X28624154Y-13224194D01*
X28895196Y-13127737D01*
X29026633Y-13057481D01*
X29101304Y-12810909D01*
X28270000Y-11979605D01*
X27438696Y-12810909D01*
X27162829Y-12810909D01*
X27181312Y-12749982D01*
X27193572Y-12625500D01*
X27193572Y-12611462D01*
X27259091Y-12631304D01*
X28090395Y-11800000D01*
X28449605Y-11800000D01*
X29280909Y-12631304D01*
X29527481Y-12556633D01*
X29650931Y-12296772D01*
X29721313Y-12017820D01*
X29735921Y-11730498D01*
X29694194Y-11445846D01*
X29597737Y-11174804D01*
X29527481Y-11043367D01*
X29280909Y-10968696D01*
X28449605Y-11800000D01*
X28090395Y-11800000D01*
X27259091Y-10968696D01*
X27193572Y-10988538D01*
X27193572Y-10974500D01*
X27181312Y-10850018D01*
X27162830Y-10789091D01*
X27438696Y-10789091D01*
X28270000Y-11620395D01*
X29101304Y-10789091D01*
X29026633Y-10542519D01*
X28766772Y-10419069D01*
X28487820Y-10348687D01*
X28200498Y-10334079D01*
X27915846Y-10375806D01*
X27644804Y-10472263D01*
X27513367Y-10542519D01*
X27438696Y-10789091D01*
X27162830Y-10789091D01*
X27145002Y-10730320D01*
X27086037Y-10620006D01*
X27006685Y-10523315D01*
X26909994Y-10443963D01*
X26799680Y-10384998D01*
X26679982Y-10348688D01*
X26555500Y-10336428D01*
X26490000Y-10336428D01*
X26490000Y-9354822D01*
X26493676Y-9317499D01*
X26490000Y-9280176D01*
X26490000Y-9280167D01*
X26479003Y-9168514D01*
X26435546Y-9025253D01*
X26431683Y-9018026D01*
X26364974Y-8893223D01*
X26293799Y-8806497D01*
X26270001Y-8777499D01*
X26241002Y-8753701D01*
X26041250Y-8553948D01*
X26041250Y-8491811D01*
X26001476Y-8291852D01*
X25923455Y-8103494D01*
X25810187Y-7933976D01*
X25666024Y-7789813D01*
X25496506Y-7676545D01*
X25308148Y-7598524D01*
X25108189Y-7558750D01*
X25046052Y-7558750D01*
X24774302Y-7287000D01*
X28661928Y-7287000D01*
X28674188Y-7411482D01*
X28710498Y-7531180D01*
X28769463Y-7641494D01*
X28848815Y-7738185D01*
X28945506Y-7817537D01*
X29055820Y-7876502D01*
X29175518Y-7912812D01*
X29300000Y-7925072D01*
X29714250Y-7922000D01*
X29873000Y-7763250D01*
X29873000Y-6906000D01*
X30127000Y-6906000D01*
X30127000Y-7763250D01*
X30285750Y-7922000D01*
X30700000Y-7925072D01*
X30824482Y-7912812D01*
X30944180Y-7876502D01*
X31054494Y-7817537D01*
X31151185Y-7738185D01*
X31230537Y-7641494D01*
X31289502Y-7531180D01*
X31325812Y-7411482D01*
X31338072Y-7287000D01*
X31335000Y-7064750D01*
X31176250Y-6906000D01*
X30127000Y-6906000D01*
X29873000Y-6906000D01*
X28823750Y-6906000D01*
X28665000Y-7064750D01*
X28661928Y-7287000D01*
X24774302Y-7287000D01*
X24336572Y-6849271D01*
X24336572Y-6270000D01*
X24324312Y-6145518D01*
X24288002Y-6025820D01*
X24229037Y-5915506D01*
X24207284Y-5889000D01*
X24229037Y-5862494D01*
X24288002Y-5752180D01*
X24324312Y-5632482D01*
X24336572Y-5508000D01*
X24336572Y-4492000D01*
X24324312Y-4367518D01*
X24288002Y-4247820D01*
X24229037Y-4137506D01*
X24149685Y-4040815D01*
X24052994Y-3961463D01*
X23942680Y-3902498D01*
X23822982Y-3866188D01*
X23760000Y-3859985D01*
X23760000Y-3138072D01*
X24616000Y-3138072D01*
X24740482Y-3125812D01*
X24860180Y-3089502D01*
X24970494Y-3030537D01*
X25067185Y-2951185D01*
X25146537Y-2854494D01*
X25197046Y-2760000D01*
X27634954Y-2760000D01*
X27685463Y-2854494D01*
X27764815Y-2951185D01*
X27861506Y-3030537D01*
X27971820Y-3089502D01*
X28091518Y-3125812D01*
X28216000Y-3138072D01*
X29240001Y-3138072D01*
X29240000Y-3859837D01*
X29175518Y-3866188D01*
X29055820Y-3902498D01*
X28945506Y-3961463D01*
X28848815Y-4040815D01*
X28769463Y-4137506D01*
X28710498Y-4247820D01*
X28674188Y-4367518D01*
X28661928Y-4492000D01*
X28661928Y-5508000D01*
X28674188Y-5632482D01*
X28710498Y-5752180D01*
X28769463Y-5862494D01*
X28791626Y-5889500D01*
X28769463Y-5916506D01*
X28710498Y-6026820D01*
X28674188Y-6146518D01*
X28661928Y-6271000D01*
X28665000Y-6493250D01*
X28823750Y-6652000D01*
X29873000Y-6652000D01*
X29873000Y-6632000D01*
X30127000Y-6632000D01*
X30127000Y-6652000D01*
X31176250Y-6652000D01*
X31335000Y-6493250D01*
X31338072Y-6271000D01*
X31325812Y-6146518D01*
X31289502Y-6026820D01*
X31230537Y-5916506D01*
X31208374Y-5889500D01*
X31230537Y-5862494D01*
X31289502Y-5752180D01*
X31325812Y-5632482D01*
X31338072Y-5508000D01*
X31338072Y-4492000D01*
X31325812Y-4367518D01*
X31289502Y-4247820D01*
X31230537Y-4137506D01*
X31151185Y-4040815D01*
X31054494Y-3961463D01*
X30944180Y-3902498D01*
X30824482Y-3866188D01*
X30760000Y-3859837D01*
X30760000Y-3138072D01*
X31416000Y-3138072D01*
X31540482Y-3125812D01*
X31660180Y-3089502D01*
X31770494Y-3030537D01*
X31867185Y-2951185D01*
X31946537Y-2854494D01*
X32005502Y-2744180D01*
X32041812Y-2624482D01*
X32054072Y-2500000D01*
X32054072Y-1500000D01*
X32041812Y-1375518D01*
X32005502Y-1255820D01*
X31946537Y-1145506D01*
X31867185Y-1048815D01*
X31770494Y-969463D01*
X31660180Y-910498D01*
X31540482Y-874188D01*
X31416000Y-861928D01*
X28216000Y-861928D01*
X28091518Y-874188D01*
X27971820Y-910498D01*
X27861506Y-969463D01*
X27764815Y-1048815D01*
X27685463Y-1145506D01*
X27634954Y-1240000D01*
X25197046Y-1240000D01*
X25146537Y-1145506D01*
X25067185Y-1048815D01*
X24970494Y-969463D01*
X24860180Y-910498D01*
X24740482Y-874188D01*
X24616000Y-861928D01*
X21416000Y-861928D01*
X21291518Y-874188D01*
X21171820Y-910498D01*
X21061506Y-969463D01*
X20964815Y-1048815D01*
X20885463Y-1145506D01*
X20834954Y-1240000D01*
X7637322Y-1240000D01*
X7600000Y-1236324D01*
X7562677Y-1240000D01*
X7562667Y-1240000D01*
X7451014Y-1250997D01*
X7307753Y-1294454D01*
X7175723Y-1365026D01*
X7108344Y-1420323D01*
X7059999Y-1459999D01*
X7036201Y-1488997D01*
X5197107Y-3328092D01*
X5168103Y-3351895D01*
X5129597Y-3398815D01*
X5073130Y-3467620D01*
X5058225Y-3495506D01*
X5002558Y-3599650D01*
X4959101Y-3742911D01*
X4948104Y-3854564D01*
X4948104Y-3854574D01*
X4944428Y-3891896D01*
X4948104Y-3929219D01*
X4948104Y-4904596D01*
X4944180Y-4902498D01*
X4824482Y-4866188D01*
X4700000Y-4853928D01*
X4160000Y-4853928D01*
X4160000Y-3138072D01*
X5000000Y-3138072D01*
X5124482Y-3125812D01*
X5244180Y-3089502D01*
X5354494Y-3030537D01*
X5451185Y-2951185D01*
X5530537Y-2854494D01*
X5589502Y-2744180D01*
X5625812Y-2624482D01*
X5638072Y-2500000D01*
X5638072Y-1500000D01*
X5625812Y-1375518D01*
X5589502Y-1255820D01*
X5530537Y-1145506D01*
X5451185Y-1048815D01*
X5354494Y-969463D01*
X5244180Y-910498D01*
X5124482Y-874188D01*
X5000000Y-861928D01*
X1800000Y-861928D01*
X1675518Y-874188D01*
X1555820Y-910498D01*
X1445506Y-969463D01*
X1348815Y-1048815D01*
X1269463Y-1145506D01*
X1218954Y-1240000D01*
X-1218954Y-1240000D01*
X-1269463Y-1145506D01*
X-1348815Y-1048815D01*
X-1445506Y-969463D01*
X-1555820Y-910498D01*
X-1675518Y-874188D01*
X-1800000Y-861928D01*
X-5000000Y-861928D01*
X-5124482Y-874188D01*
X-5244180Y-910498D01*
X-5354494Y-969463D01*
X-5451185Y-1048815D01*
X-5530537Y-1145506D01*
X-5589502Y-1255820D01*
X-5625812Y-1375518D01*
X-5638072Y-1500000D01*
X-7340000Y-1500000D01*
X-7340000Y1500000D01*
X-5638072Y1500000D01*
X-5625812Y1375518D01*
X-5589502Y1255820D01*
X-5530537Y1145506D01*
X-5451185Y1048815D01*
X-5354494Y969463D01*
X-5244180Y910498D01*
X-5124482Y874188D01*
X-5000000Y861928D01*
X-3685750Y865000D01*
X-3527000Y1023750D01*
X-3527000Y1873000D01*
X-3273000Y1873000D01*
X-3273000Y1023750D01*
X-3114250Y865000D01*
X-1800000Y861928D01*
X-1675518Y874188D01*
X-1555820Y910498D01*
X-1445506Y969463D01*
X-1348815Y1048815D01*
X-1269463Y1145506D01*
X-1210498Y1255820D01*
X-1174188Y1375518D01*
X-1161928Y1500000D01*
X1161928Y1500000D01*
X1174188Y1375518D01*
X1210498Y1255820D01*
X1269463Y1145506D01*
X1348815Y1048815D01*
X1445506Y969463D01*
X1555820Y910498D01*
X1675518Y874188D01*
X1800000Y861928D01*
X3114250Y865000D01*
X3273000Y1023750D01*
X3273000Y1873000D01*
X3527000Y1873000D01*
X3527000Y1023750D01*
X3685750Y865000D01*
X5000000Y861928D01*
X5124482Y874188D01*
X5244180Y910498D01*
X5354494Y969463D01*
X5451185Y1048815D01*
X5530537Y1145506D01*
X5589502Y1255820D01*
X5625812Y1375518D01*
X5638072Y1500000D01*
X20777928Y1500000D01*
X20790188Y1375518D01*
X20826498Y1255820D01*
X20885463Y1145506D01*
X20964815Y1048815D01*
X21061506Y969463D01*
X21171820Y910498D01*
X21291518Y874188D01*
X21416000Y861928D01*
X22730250Y865000D01*
X22889000Y1023750D01*
X22889000Y1873000D01*
X23143000Y1873000D01*
X23143000Y1023750D01*
X23301750Y865000D01*
X24616000Y861928D01*
X24740482Y874188D01*
X24860180Y910498D01*
X24970494Y969463D01*
X25067185Y1048815D01*
X25146537Y1145506D01*
X25205502Y1255820D01*
X25241812Y1375518D01*
X25254072Y1500000D01*
X27577928Y1500000D01*
X27590188Y1375518D01*
X27626498Y1255820D01*
X27685463Y1145506D01*
X27764815Y1048815D01*
X27861506Y969463D01*
X27971820Y910498D01*
X28091518Y874188D01*
X28216000Y861928D01*
X29530250Y865000D01*
X29689000Y1023750D01*
X29689000Y1873000D01*
X29943000Y1873000D01*
X29943000Y1023750D01*
X30101750Y865000D01*
X31416000Y861928D01*
X31540482Y874188D01*
X31660180Y910498D01*
X31770494Y969463D01*
X31867185Y1048815D01*
X31946537Y1145506D01*
X32005502Y1255820D01*
X32041812Y1375518D01*
X32054072Y1500000D01*
X32051000Y1714250D01*
X31892250Y1873000D01*
X29943000Y1873000D01*
X29689000Y1873000D01*
X27739750Y1873000D01*
X27581000Y1714250D01*
X27577928Y1500000D01*
X25254072Y1500000D01*
X25251000Y1714250D01*
X25092250Y1873000D01*
X23143000Y1873000D01*
X22889000Y1873000D01*
X20939750Y1873000D01*
X20781000Y1714250D01*
X20777928Y1500000D01*
X5638072Y1500000D01*
X5635000Y1714250D01*
X5476250Y1873000D01*
X3527000Y1873000D01*
X3273000Y1873000D01*
X1323750Y1873000D01*
X1165000Y1714250D01*
X1161928Y1500000D01*
X-1161928Y1500000D01*
X-1165000Y1714250D01*
X-1323750Y1873000D01*
X-3273000Y1873000D01*
X-3527000Y1873000D01*
X-5476250Y1873000D01*
X-5635000Y1714250D01*
X-5638072Y1500000D01*
X-7340000Y1500000D01*
X-7340000Y2500000D01*
X-5638072Y2500000D01*
X-5635000Y2285750D01*
X-5476250Y2127000D01*
X-3527000Y2127000D01*
X-3527000Y2976250D01*
X-3273000Y2976250D01*
X-3273000Y2127000D01*
X-1323750Y2127000D01*
X-1165000Y2285750D01*
X-1161928Y2500000D01*
X1161928Y2500000D01*
X1165000Y2285750D01*
X1323750Y2127000D01*
X3273000Y2127000D01*
X3273000Y2976250D01*
X3527000Y2976250D01*
X3527000Y2127000D01*
X5476250Y2127000D01*
X5635000Y2285750D01*
X5638072Y2500000D01*
X20777928Y2500000D01*
X20781000Y2285750D01*
X20939750Y2127000D01*
X22889000Y2127000D01*
X22889000Y2976250D01*
X23143000Y2976250D01*
X23143000Y2127000D01*
X25092250Y2127000D01*
X25251000Y2285750D01*
X25254072Y2500000D01*
X27577928Y2500000D01*
X27581000Y2285750D01*
X27739750Y2127000D01*
X29689000Y2127000D01*
X29689000Y2976250D01*
X29943000Y2976250D01*
X29943000Y2127000D01*
X31892250Y2127000D01*
X32051000Y2285750D01*
X32054072Y2500000D01*
X32041812Y2624482D01*
X32005502Y2744180D01*
X31946537Y2854494D01*
X31867185Y2951185D01*
X31770494Y3030537D01*
X31660180Y3089502D01*
X31540482Y3125812D01*
X31416000Y3138072D01*
X30101750Y3135000D01*
X29943000Y2976250D01*
X29689000Y2976250D01*
X29530250Y3135000D01*
X28216000Y3138072D01*
X28091518Y3125812D01*
X27971820Y3089502D01*
X27861506Y3030537D01*
X27764815Y2951185D01*
X27685463Y2854494D01*
X27626498Y2744180D01*
X27590188Y2624482D01*
X27577928Y2500000D01*
X25254072Y2500000D01*
X25241812Y2624482D01*
X25205502Y2744180D01*
X25146537Y2854494D01*
X25067185Y2951185D01*
X24970494Y3030537D01*
X24860180Y3089502D01*
X24740482Y3125812D01*
X24616000Y3138072D01*
X23301750Y3135000D01*
X23143000Y2976250D01*
X22889000Y2976250D01*
X22730250Y3135000D01*
X21416000Y3138072D01*
X21291518Y3125812D01*
X21171820Y3089502D01*
X21061506Y3030537D01*
X20964815Y2951185D01*
X20885463Y2854494D01*
X20826498Y2744180D01*
X20790188Y2624482D01*
X20777928Y2500000D01*
X5638072Y2500000D01*
X5625812Y2624482D01*
X5589502Y2744180D01*
X5530537Y2854494D01*
X5451185Y2951185D01*
X5354494Y3030537D01*
X5244180Y3089502D01*
X5124482Y3125812D01*
X5000000Y3138072D01*
X3685750Y3135000D01*
X3527000Y2976250D01*
X3273000Y2976250D01*
X3114250Y3135000D01*
X1800000Y3138072D01*
X1675518Y3125812D01*
X1555820Y3089502D01*
X1445506Y3030537D01*
X1348815Y2951185D01*
X1269463Y2854494D01*
X1210498Y2744180D01*
X1174188Y2624482D01*
X1161928Y2500000D01*
X-1161928Y2500000D01*
X-1174188Y2624482D01*
X-1210498Y2744180D01*
X-1269463Y2854494D01*
X-1348815Y2951185D01*
X-1445506Y3030537D01*
X-1555820Y3089502D01*
X-1675518Y3125812D01*
X-1800000Y3138072D01*
X-3114250Y3135000D01*
X-3273000Y2976250D01*
X-3527000Y2976250D01*
X-3685750Y3135000D01*
X-5000000Y3138072D01*
X-5124482Y3125812D01*
X-5244180Y3089502D01*
X-5354494Y3030537D01*
X-5451185Y2951185D01*
X-5530537Y2854494D01*
X-5589502Y2744180D01*
X-5625812Y2624482D01*
X-5638072Y2500000D01*
X-7340000Y2500000D01*
X-7340000Y2967721D01*
X-7311375Y3259659D01*
X-7235965Y3509429D01*
X-7113478Y3739792D01*
X-6948578Y3941980D01*
X-6747550Y4108286D01*
X-6518046Y4232378D01*
X-6268805Y4309531D01*
X-5978912Y4340000D01*
X31967721Y4340000D01*
X32259659Y4311375D01*
X32259659Y4311375D01*
G37*
X32259659Y4311375D02*
X32509429Y4235965D01*
X32739792Y4113478D01*
X32941980Y3948578D01*
X33108286Y3747550D01*
X33232378Y3518046D01*
X33309531Y3268805D01*
X33340000Y2978911D01*
X33340001Y-14967711D01*
X33311375Y-15259660D01*
X33235965Y-15509429D01*
X33113477Y-15739794D01*
X32948579Y-15941979D01*
X32747546Y-16108288D01*
X32518046Y-16232378D01*
X32268805Y-16309531D01*
X31978911Y-16340000D01*
X-5967721Y-16340000D01*
X-6259660Y-16311375D01*
X-6509429Y-16235965D01*
X-6739794Y-16113477D01*
X-6941979Y-15948579D01*
X-7108288Y-15747546D01*
X-7232378Y-15518046D01*
X-7309531Y-15268805D01*
X-7340000Y-14978911D01*
X-7340000Y-1500000D01*
X-5638072Y-1500000D01*
X-5638072Y-2500000D01*
X-5625812Y-2624482D01*
X-5589502Y-2744180D01*
X-5530537Y-2854494D01*
X-5451185Y-2951185D01*
X-5354494Y-3030537D01*
X-5244180Y-3089502D01*
X-5124482Y-3125812D01*
X-5000000Y-3138072D01*
X-4160000Y-3138072D01*
X-4159999Y-5053383D01*
X-4229037Y-5137506D01*
X-4288002Y-5247820D01*
X-4314031Y-5333626D01*
X-4372776Y-5365026D01*
X-4488501Y-5459999D01*
X-4512299Y-5488997D01*
X-5310998Y-6287697D01*
X-5340001Y-6311499D01*
X-5382822Y-6363677D01*
X-5434974Y-6427224D01*
X-5466259Y-6485754D01*
X-5505546Y-6559254D01*
X-5549003Y-6702515D01*
X-5560000Y-6814168D01*
X-5560000Y-6814178D01*
X-5563676Y-6851500D01*
X-5560000Y-6888823D01*
X-5559999Y-10702668D01*
X-5563676Y-10740000D01*
X-5559999Y-10777333D01*
X-5549002Y-10888986D01*
X-5535820Y-10932442D01*
X-5505546Y-11032246D01*
X-5434974Y-11164276D01*
X-5375845Y-11236324D01*
X-5340000Y-11280001D01*
X-5311002Y-11303799D01*
X-3960374Y-12654428D01*
X-4000500Y-12856153D01*
X-4000500Y-13143847D01*
X-3944374Y-13426012D01*
X-3834279Y-13691806D01*
X-3674445Y-13931015D01*
X-3471015Y-14134445D01*
X-3231806Y-14294279D01*
X-2966012Y-14404374D01*
X-2683847Y-14460500D01*
X-2396153Y-14460500D01*
X-2113988Y-14404374D01*
X-1848194Y-14294279D01*
X-1608985Y-14134445D01*
X-1405555Y-13931015D01*
X-1270000Y-13728142D01*
X-1134445Y-13931015D01*
X-931015Y-14134445D01*
X-691806Y-14294279D01*
X-426012Y-14404374D01*
X-143847Y-14460500D01*
X143847Y-14460500D01*
X426012Y-14404374D01*
X691806Y-14294279D01*
X931015Y-14134445D01*
X1094923Y-13970537D01*
X1124998Y-14069680D01*
X1183963Y-14179994D01*
X1263315Y-14276685D01*
X1360006Y-14356037D01*
X1470320Y-14415002D01*
X1590018Y-14451312D01*
X1714500Y-14463572D01*
X3365500Y-14463572D01*
X3489982Y-14451312D01*
X3609680Y-14415002D01*
X3719994Y-14356037D01*
X3816685Y-14276685D01*
X3896037Y-14179994D01*
X3955002Y-14069680D01*
X3991312Y-13949982D01*
X4003572Y-13825500D01*
X4003572Y-12174500D01*
X3991312Y-12050018D01*
X3955002Y-11930320D01*
X3896037Y-11820006D01*
X3816685Y-11723315D01*
X3719994Y-11643963D01*
X3609680Y-11584998D01*
X3489982Y-11548688D01*
X3365500Y-11536428D01*
X3194326Y-11536428D01*
X3174974Y-11500224D01*
X3141809Y-11459812D01*
X3080001Y-11384499D01*
X3051003Y-11360701D01*
X1796920Y-10106619D01*
X1795226Y-10098102D01*
X1738022Y-9960000D01*
X3812197Y-9960000D01*
X6228499Y-12376303D01*
X6228499Y-12438440D01*
X6268273Y-12638399D01*
X6346294Y-12826757D01*
X6459562Y-12996275D01*
X6603725Y-13140438D01*
X6773243Y-13253706D01*
X6961601Y-13331727D01*
X7161560Y-13371501D01*
X7223697Y-13371501D01*
X7641198Y-13789002D01*
X7664997Y-13818001D01*
X7780722Y-13912974D01*
X7912751Y-13983546D01*
X8056012Y-14027003D01*
X8167665Y-14038000D01*
X8167673Y-14038000D01*
X8204998Y-14041676D01*
X8242323Y-14038000D01*
X8716178Y-14038000D01*
X8770963Y-14140494D01*
X8850315Y-14237185D01*
X8947006Y-14316537D01*
X9057320Y-14375502D01*
X9177018Y-14411812D01*
X9301500Y-14424072D01*
X10698500Y-14424072D01*
X10761250Y-14417892D01*
X10818045Y-14555006D01*
X10931313Y-14724524D01*
X11075476Y-14868687D01*
X11244994Y-14981955D01*
X11433352Y-15059976D01*
X11633311Y-15099750D01*
X11695448Y-15099750D01*
X12106701Y-15511003D01*
X12130499Y-15540001D01*
X12246224Y-15634974D01*
X12378253Y-15705546D01*
X12521514Y-15749003D01*
X12633167Y-15760000D01*
X12633176Y-15760000D01*
X12670499Y-15763676D01*
X12707822Y-15760000D01*
X13496289Y-15760000D01*
X13540226Y-15803937D01*
X13709744Y-15917205D01*
X13898102Y-15995226D01*
X14098061Y-16035000D01*
X14301939Y-16035000D01*
X14501898Y-15995226D01*
X14690256Y-15917205D01*
X14859774Y-15803937D01*
X14903711Y-15760000D01*
X18962678Y-15760000D01*
X19000000Y-15763676D01*
X19037322Y-15760000D01*
X19037333Y-15760000D01*
X19148986Y-15749003D01*
X19292247Y-15705546D01*
X19424276Y-15634974D01*
X19540001Y-15540001D01*
X19563804Y-15510997D01*
X22511003Y-12563799D01*
X22540001Y-12540001D01*
X22634974Y-12424276D01*
X22705546Y-12292247D01*
X22749003Y-12148986D01*
X22760000Y-12037333D01*
X22760000Y-12037325D01*
X22763676Y-12000000D01*
X22760000Y-11962675D01*
X22760000Y-11703711D01*
X22803937Y-11659774D01*
X22917205Y-11490256D01*
X22995226Y-11301898D01*
X23035000Y-11101939D01*
X23035000Y-10898061D01*
X22995226Y-10698102D01*
X22917205Y-10509744D01*
X22803937Y-10340226D01*
X22760000Y-10296289D01*
X22760000Y-10136803D01*
X23511003Y-9385801D01*
X23540001Y-9362003D01*
X23634974Y-9246278D01*
X23705546Y-9114249D01*
X23749003Y-8970988D01*
X23760000Y-8859335D01*
X23763677Y-8822002D01*
X23760000Y-8784669D01*
X23760000Y-8422302D01*
X23971250Y-8633552D01*
X23971250Y-8695689D01*
X24011024Y-8895648D01*
X24089045Y-9084006D01*
X24202313Y-9253524D01*
X24346476Y-9397687D01*
X24515994Y-9510955D01*
X24704352Y-9588976D01*
X24904311Y-9628750D01*
X24966448Y-9628750D01*
X24970001Y-9632303D01*
X24970001Y-10336428D01*
X24904500Y-10336428D01*
X24780018Y-10348688D01*
X24660320Y-10384998D01*
X24550006Y-10443963D01*
X24453315Y-10523315D01*
X24373963Y-10620006D01*
X24314998Y-10730320D01*
X24278688Y-10850018D01*
X24266428Y-10974500D01*
X24266428Y-12625500D01*
X24278688Y-12749982D01*
X24314998Y-12869680D01*
X24373963Y-12979994D01*
X24453315Y-13076685D01*
X24550006Y-13156037D01*
X24660320Y-13215002D01*
X24780018Y-13251312D01*
X24904500Y-13263572D01*
X26555500Y-13263572D01*
X26679982Y-13251312D01*
X26799680Y-13215002D01*
X26909994Y-13156037D01*
X27006685Y-13076685D01*
X27086037Y-12979994D01*
X27145002Y-12869680D01*
X27162829Y-12810909D01*
X27438696Y-12810909D01*
X27513367Y-13057481D01*
X27773228Y-13180931D01*
X28052180Y-13251313D01*
X28339502Y-13265921D01*
X28624154Y-13224194D01*
X28895196Y-13127737D01*
X29026633Y-13057481D01*
X29101304Y-12810909D01*
X28270000Y-11979605D01*
X27438696Y-12810909D01*
X27162829Y-12810909D01*
X27181312Y-12749982D01*
X27193572Y-12625500D01*
X27193572Y-12611462D01*
X27259091Y-12631304D01*
X28090395Y-11800000D01*
X28449605Y-11800000D01*
X29280909Y-12631304D01*
X29527481Y-12556633D01*
X29650931Y-12296772D01*
X29721313Y-12017820D01*
X29735921Y-11730498D01*
X29694194Y-11445846D01*
X29597737Y-11174804D01*
X29527481Y-11043367D01*
X29280909Y-10968696D01*
X28449605Y-11800000D01*
X28090395Y-11800000D01*
X27259091Y-10968696D01*
X27193572Y-10988538D01*
X27193572Y-10974500D01*
X27181312Y-10850018D01*
X27162830Y-10789091D01*
X27438696Y-10789091D01*
X28270000Y-11620395D01*
X29101304Y-10789091D01*
X29026633Y-10542519D01*
X28766772Y-10419069D01*
X28487820Y-10348687D01*
X28200498Y-10334079D01*
X27915846Y-10375806D01*
X27644804Y-10472263D01*
X27513367Y-10542519D01*
X27438696Y-10789091D01*
X27162830Y-10789091D01*
X27145002Y-10730320D01*
X27086037Y-10620006D01*
X27006685Y-10523315D01*
X26909994Y-10443963D01*
X26799680Y-10384998D01*
X26679982Y-10348688D01*
X26555500Y-10336428D01*
X26490000Y-10336428D01*
X26490000Y-9354822D01*
X26493676Y-9317499D01*
X26490000Y-9280176D01*
X26490000Y-9280167D01*
X26479003Y-9168514D01*
X26435546Y-9025253D01*
X26431683Y-9018026D01*
X26364974Y-8893223D01*
X26293799Y-8806497D01*
X26270001Y-8777499D01*
X26241002Y-8753701D01*
X26041250Y-8553948D01*
X26041250Y-8491811D01*
X26001476Y-8291852D01*
X25923455Y-8103494D01*
X25810187Y-7933976D01*
X25666024Y-7789813D01*
X25496506Y-7676545D01*
X25308148Y-7598524D01*
X25108189Y-7558750D01*
X25046052Y-7558750D01*
X24774302Y-7287000D01*
X28661928Y-7287000D01*
X28674188Y-7411482D01*
X28710498Y-7531180D01*
X28769463Y-7641494D01*
X28848815Y-7738185D01*
X28945506Y-7817537D01*
X29055820Y-7876502D01*
X29175518Y-7912812D01*
X29300000Y-7925072D01*
X29714250Y-7922000D01*
X29873000Y-7763250D01*
X29873000Y-6906000D01*
X30127000Y-6906000D01*
X30127000Y-7763250D01*
X30285750Y-7922000D01*
X30700000Y-7925072D01*
X30824482Y-7912812D01*
X30944180Y-7876502D01*
X31054494Y-7817537D01*
X31151185Y-7738185D01*
X31230537Y-7641494D01*
X31289502Y-7531180D01*
X31325812Y-7411482D01*
X31338072Y-7287000D01*
X31335000Y-7064750D01*
X31176250Y-6906000D01*
X30127000Y-6906000D01*
X29873000Y-6906000D01*
X28823750Y-6906000D01*
X28665000Y-7064750D01*
X28661928Y-7287000D01*
X24774302Y-7287000D01*
X24336572Y-6849271D01*
X24336572Y-6270000D01*
X24324312Y-6145518D01*
X24288002Y-6025820D01*
X24229037Y-5915506D01*
X24207284Y-5889000D01*
X24229037Y-5862494D01*
X24288002Y-5752180D01*
X24324312Y-5632482D01*
X24336572Y-5508000D01*
X24336572Y-4492000D01*
X24324312Y-4367518D01*
X24288002Y-4247820D01*
X24229037Y-4137506D01*
X24149685Y-4040815D01*
X24052994Y-3961463D01*
X23942680Y-3902498D01*
X23822982Y-3866188D01*
X23760000Y-3859985D01*
X23760000Y-3138072D01*
X24616000Y-3138072D01*
X24740482Y-3125812D01*
X24860180Y-3089502D01*
X24970494Y-3030537D01*
X25067185Y-2951185D01*
X25146537Y-2854494D01*
X25197046Y-2760000D01*
X27634954Y-2760000D01*
X27685463Y-2854494D01*
X27764815Y-2951185D01*
X27861506Y-3030537D01*
X27971820Y-3089502D01*
X28091518Y-3125812D01*
X28216000Y-3138072D01*
X29240001Y-3138072D01*
X29240000Y-3859837D01*
X29175518Y-3866188D01*
X29055820Y-3902498D01*
X28945506Y-3961463D01*
X28848815Y-4040815D01*
X28769463Y-4137506D01*
X28710498Y-4247820D01*
X28674188Y-4367518D01*
X28661928Y-4492000D01*
X28661928Y-5508000D01*
X28674188Y-5632482D01*
X28710498Y-5752180D01*
X28769463Y-5862494D01*
X28791626Y-5889500D01*
X28769463Y-5916506D01*
X28710498Y-6026820D01*
X28674188Y-6146518D01*
X28661928Y-6271000D01*
X28665000Y-6493250D01*
X28823750Y-6652000D01*
X29873000Y-6652000D01*
X29873000Y-6632000D01*
X30127000Y-6632000D01*
X30127000Y-6652000D01*
X31176250Y-6652000D01*
X31335000Y-6493250D01*
X31338072Y-6271000D01*
X31325812Y-6146518D01*
X31289502Y-6026820D01*
X31230537Y-5916506D01*
X31208374Y-5889500D01*
X31230537Y-5862494D01*
X31289502Y-5752180D01*
X31325812Y-5632482D01*
X31338072Y-5508000D01*
X31338072Y-4492000D01*
X31325812Y-4367518D01*
X31289502Y-4247820D01*
X31230537Y-4137506D01*
X31151185Y-4040815D01*
X31054494Y-3961463D01*
X30944180Y-3902498D01*
X30824482Y-3866188D01*
X30760000Y-3859837D01*
X30760000Y-3138072D01*
X31416000Y-3138072D01*
X31540482Y-3125812D01*
X31660180Y-3089502D01*
X31770494Y-3030537D01*
X31867185Y-2951185D01*
X31946537Y-2854494D01*
X32005502Y-2744180D01*
X32041812Y-2624482D01*
X32054072Y-2500000D01*
X32054072Y-1500000D01*
X32041812Y-1375518D01*
X32005502Y-1255820D01*
X31946537Y-1145506D01*
X31867185Y-1048815D01*
X31770494Y-969463D01*
X31660180Y-910498D01*
X31540482Y-874188D01*
X31416000Y-861928D01*
X28216000Y-861928D01*
X28091518Y-874188D01*
X27971820Y-910498D01*
X27861506Y-969463D01*
X27764815Y-1048815D01*
X27685463Y-1145506D01*
X27634954Y-1240000D01*
X25197046Y-1240000D01*
X25146537Y-1145506D01*
X25067185Y-1048815D01*
X24970494Y-969463D01*
X24860180Y-910498D01*
X24740482Y-874188D01*
X24616000Y-861928D01*
X21416000Y-861928D01*
X21291518Y-874188D01*
X21171820Y-910498D01*
X21061506Y-969463D01*
X20964815Y-1048815D01*
X20885463Y-1145506D01*
X20834954Y-1240000D01*
X7637322Y-1240000D01*
X7600000Y-1236324D01*
X7562677Y-1240000D01*
X7562667Y-1240000D01*
X7451014Y-1250997D01*
X7307753Y-1294454D01*
X7175723Y-1365026D01*
X7108344Y-1420323D01*
X7059999Y-1459999D01*
X7036201Y-1488997D01*
X5197107Y-3328092D01*
X5168103Y-3351895D01*
X5129597Y-3398815D01*
X5073130Y-3467620D01*
X5058225Y-3495506D01*
X5002558Y-3599650D01*
X4959101Y-3742911D01*
X4948104Y-3854564D01*
X4948104Y-3854574D01*
X4944428Y-3891896D01*
X4948104Y-3929219D01*
X4948104Y-4904596D01*
X4944180Y-4902498D01*
X4824482Y-4866188D01*
X4700000Y-4853928D01*
X4160000Y-4853928D01*
X4160000Y-3138072D01*
X5000000Y-3138072D01*
X5124482Y-3125812D01*
X5244180Y-3089502D01*
X5354494Y-3030537D01*
X5451185Y-2951185D01*
X5530537Y-2854494D01*
X5589502Y-2744180D01*
X5625812Y-2624482D01*
X5638072Y-2500000D01*
X5638072Y-1500000D01*
X5625812Y-1375518D01*
X5589502Y-1255820D01*
X5530537Y-1145506D01*
X5451185Y-1048815D01*
X5354494Y-969463D01*
X5244180Y-910498D01*
X5124482Y-874188D01*
X5000000Y-861928D01*
X1800000Y-861928D01*
X1675518Y-874188D01*
X1555820Y-910498D01*
X1445506Y-969463D01*
X1348815Y-1048815D01*
X1269463Y-1145506D01*
X1218954Y-1240000D01*
X-1218954Y-1240000D01*
X-1269463Y-1145506D01*
X-1348815Y-1048815D01*
X-1445506Y-969463D01*
X-1555820Y-910498D01*
X-1675518Y-874188D01*
X-1800000Y-861928D01*
X-5000000Y-861928D01*
X-5124482Y-874188D01*
X-5244180Y-910498D01*
X-5354494Y-969463D01*
X-5451185Y-1048815D01*
X-5530537Y-1145506D01*
X-5589502Y-1255820D01*
X-5625812Y-1375518D01*
X-5638072Y-1500000D01*
X-7340000Y-1500000D01*
X-7340000Y1500000D01*
X-5638072Y1500000D01*
X-5625812Y1375518D01*
X-5589502Y1255820D01*
X-5530537Y1145506D01*
X-5451185Y1048815D01*
X-5354494Y969463D01*
X-5244180Y910498D01*
X-5124482Y874188D01*
X-5000000Y861928D01*
X-3685750Y865000D01*
X-3527000Y1023750D01*
X-3527000Y1873000D01*
X-3273000Y1873000D01*
X-3273000Y1023750D01*
X-3114250Y865000D01*
X-1800000Y861928D01*
X-1675518Y874188D01*
X-1555820Y910498D01*
X-1445506Y969463D01*
X-1348815Y1048815D01*
X-1269463Y1145506D01*
X-1210498Y1255820D01*
X-1174188Y1375518D01*
X-1161928Y1500000D01*
X1161928Y1500000D01*
X1174188Y1375518D01*
X1210498Y1255820D01*
X1269463Y1145506D01*
X1348815Y1048815D01*
X1445506Y969463D01*
X1555820Y910498D01*
X1675518Y874188D01*
X1800000Y861928D01*
X3114250Y865000D01*
X3273000Y1023750D01*
X3273000Y1873000D01*
X3527000Y1873000D01*
X3527000Y1023750D01*
X3685750Y865000D01*
X5000000Y861928D01*
X5124482Y874188D01*
X5244180Y910498D01*
X5354494Y969463D01*
X5451185Y1048815D01*
X5530537Y1145506D01*
X5589502Y1255820D01*
X5625812Y1375518D01*
X5638072Y1500000D01*
X20777928Y1500000D01*
X20790188Y1375518D01*
X20826498Y1255820D01*
X20885463Y1145506D01*
X20964815Y1048815D01*
X21061506Y969463D01*
X21171820Y910498D01*
X21291518Y874188D01*
X21416000Y861928D01*
X22730250Y865000D01*
X22889000Y1023750D01*
X22889000Y1873000D01*
X23143000Y1873000D01*
X23143000Y1023750D01*
X23301750Y865000D01*
X24616000Y861928D01*
X24740482Y874188D01*
X24860180Y910498D01*
X24970494Y969463D01*
X25067185Y1048815D01*
X25146537Y1145506D01*
X25205502Y1255820D01*
X25241812Y1375518D01*
X25254072Y1500000D01*
X27577928Y1500000D01*
X27590188Y1375518D01*
X27626498Y1255820D01*
X27685463Y1145506D01*
X27764815Y1048815D01*
X27861506Y969463D01*
X27971820Y910498D01*
X28091518Y874188D01*
X28216000Y861928D01*
X29530250Y865000D01*
X29689000Y1023750D01*
X29689000Y1873000D01*
X29943000Y1873000D01*
X29943000Y1023750D01*
X30101750Y865000D01*
X31416000Y861928D01*
X31540482Y874188D01*
X31660180Y910498D01*
X31770494Y969463D01*
X31867185Y1048815D01*
X31946537Y1145506D01*
X32005502Y1255820D01*
X32041812Y1375518D01*
X32054072Y1500000D01*
X32051000Y1714250D01*
X31892250Y1873000D01*
X29943000Y1873000D01*
X29689000Y1873000D01*
X27739750Y1873000D01*
X27581000Y1714250D01*
X27577928Y1500000D01*
X25254072Y1500000D01*
X25251000Y1714250D01*
X25092250Y1873000D01*
X23143000Y1873000D01*
X22889000Y1873000D01*
X20939750Y1873000D01*
X20781000Y1714250D01*
X20777928Y1500000D01*
X5638072Y1500000D01*
X5635000Y1714250D01*
X5476250Y1873000D01*
X3527000Y1873000D01*
X3273000Y1873000D01*
X1323750Y1873000D01*
X1165000Y1714250D01*
X1161928Y1500000D01*
X-1161928Y1500000D01*
X-1165000Y1714250D01*
X-1323750Y1873000D01*
X-3273000Y1873000D01*
X-3527000Y1873000D01*
X-5476250Y1873000D01*
X-5635000Y1714250D01*
X-5638072Y1500000D01*
X-7340000Y1500000D01*
X-7340000Y2500000D01*
X-5638072Y2500000D01*
X-5635000Y2285750D01*
X-5476250Y2127000D01*
X-3527000Y2127000D01*
X-3527000Y2976250D01*
X-3273000Y2976250D01*
X-3273000Y2127000D01*
X-1323750Y2127000D01*
X-1165000Y2285750D01*
X-1161928Y2500000D01*
X1161928Y2500000D01*
X1165000Y2285750D01*
X1323750Y2127000D01*
X3273000Y2127000D01*
X3273000Y2976250D01*
X3527000Y2976250D01*
X3527000Y2127000D01*
X5476250Y2127000D01*
X5635000Y2285750D01*
X5638072Y2500000D01*
X20777928Y2500000D01*
X20781000Y2285750D01*
X20939750Y2127000D01*
X22889000Y2127000D01*
X22889000Y2976250D01*
X23143000Y2976250D01*
X23143000Y2127000D01*
X25092250Y2127000D01*
X25251000Y2285750D01*
X25254072Y2500000D01*
X27577928Y2500000D01*
X27581000Y2285750D01*
X27739750Y2127000D01*
X29689000Y2127000D01*
X29689000Y2976250D01*
X29943000Y2976250D01*
X29943000Y2127000D01*
X31892250Y2127000D01*
X32051000Y2285750D01*
X32054072Y2500000D01*
X32041812Y2624482D01*
X32005502Y2744180D01*
X31946537Y2854494D01*
X31867185Y2951185D01*
X31770494Y3030537D01*
X31660180Y3089502D01*
X31540482Y3125812D01*
X31416000Y3138072D01*
X30101750Y3135000D01*
X29943000Y2976250D01*
X29689000Y2976250D01*
X29530250Y3135000D01*
X28216000Y3138072D01*
X28091518Y3125812D01*
X27971820Y3089502D01*
X27861506Y3030537D01*
X27764815Y2951185D01*
X27685463Y2854494D01*
X27626498Y2744180D01*
X27590188Y2624482D01*
X27577928Y2500000D01*
X25254072Y2500000D01*
X25241812Y2624482D01*
X25205502Y2744180D01*
X25146537Y2854494D01*
X25067185Y2951185D01*
X24970494Y3030537D01*
X24860180Y3089502D01*
X24740482Y3125812D01*
X24616000Y3138072D01*
X23301750Y3135000D01*
X23143000Y2976250D01*
X22889000Y2976250D01*
X22730250Y3135000D01*
X21416000Y3138072D01*
X21291518Y3125812D01*
X21171820Y3089502D01*
X21061506Y3030537D01*
X20964815Y2951185D01*
X20885463Y2854494D01*
X20826498Y2744180D01*
X20790188Y2624482D01*
X20777928Y2500000D01*
X5638072Y2500000D01*
X5625812Y2624482D01*
X5589502Y2744180D01*
X5530537Y2854494D01*
X5451185Y2951185D01*
X5354494Y3030537D01*
X5244180Y3089502D01*
X5124482Y3125812D01*
X5000000Y3138072D01*
X3685750Y3135000D01*
X3527000Y2976250D01*
X3273000Y2976250D01*
X3114250Y3135000D01*
X1800000Y3138072D01*
X1675518Y3125812D01*
X1555820Y3089502D01*
X1445506Y3030537D01*
X1348815Y2951185D01*
X1269463Y2854494D01*
X1210498Y2744180D01*
X1174188Y2624482D01*
X1161928Y2500000D01*
X-1161928Y2500000D01*
X-1174188Y2624482D01*
X-1210498Y2744180D01*
X-1269463Y2854494D01*
X-1348815Y2951185D01*
X-1445506Y3030537D01*
X-1555820Y3089502D01*
X-1675518Y3125812D01*
X-1800000Y3138072D01*
X-3114250Y3135000D01*
X-3273000Y2976250D01*
X-3527000Y2976250D01*
X-3685750Y3135000D01*
X-5000000Y3138072D01*
X-5124482Y3125812D01*
X-5244180Y3089502D01*
X-5354494Y3030537D01*
X-5451185Y2951185D01*
X-5530537Y2854494D01*
X-5589502Y2744180D01*
X-5625812Y2624482D01*
X-5638072Y2500000D01*
X-7340000Y2500000D01*
X-7340000Y2967721D01*
X-7311375Y3259659D01*
X-7235965Y3509429D01*
X-7113478Y3739792D01*
X-6948578Y3941980D01*
X-6747550Y4108286D01*
X-6518046Y4232378D01*
X-6268805Y4309531D01*
X-5978912Y4340000D01*
X31967721Y4340000D01*
X32259659Y4311375D01*
G36*
X20885463Y-2854494D02*
G01*
X20964815Y-2951185D01*
X21061506Y-3030537D01*
X21171820Y-3089502D01*
X21291518Y-3125812D01*
X21416000Y-3138072D01*
X22240001Y-3138072D01*
X22240000Y-3859985D01*
X22177018Y-3866188D01*
X22057320Y-3902498D01*
X21947006Y-3961463D01*
X21850315Y-4040815D01*
X21770963Y-4137506D01*
X21711998Y-4247820D01*
X21675688Y-4367518D01*
X21663428Y-4492000D01*
X21663428Y-5508000D01*
X21675688Y-5632482D01*
X21711998Y-5752180D01*
X21770963Y-5862494D01*
X21792716Y-5889000D01*
X21770963Y-5915506D01*
X21711998Y-6025820D01*
X21675688Y-6145518D01*
X21663428Y-6270000D01*
X21663428Y-7286000D01*
X21675688Y-7410482D01*
X21711998Y-7530180D01*
X21770963Y-7640494D01*
X21850315Y-7737185D01*
X21947006Y-7816537D01*
X22057320Y-7875502D01*
X22177018Y-7911812D01*
X22240001Y-7918015D01*
X22240001Y-8507199D01*
X21489002Y-9258198D01*
X21459999Y-9282001D01*
X21405027Y-9348985D01*
X21365026Y-9397726D01*
X21318190Y-9485350D01*
X21294454Y-9529756D01*
X21250997Y-9673017D01*
X21240000Y-9784670D01*
X21240000Y-9784680D01*
X21236324Y-9822002D01*
X21240000Y-9859325D01*
X21240000Y-10296289D01*
X21196063Y-10340226D01*
X21082795Y-10509744D01*
X21004774Y-10698102D01*
X20965000Y-10898061D01*
X20965000Y-11101939D01*
X21004774Y-11301898D01*
X21082795Y-11490256D01*
X21196063Y-11659774D01*
X21230744Y-11694455D01*
X18685199Y-14240000D01*
X17898973Y-14240000D01*
X17901185Y-14238185D01*
X17980537Y-14141494D01*
X18039502Y-14031180D01*
X18075812Y-13911482D01*
X18088072Y-13787000D01*
X18085000Y-13564750D01*
X17926250Y-13406000D01*
X16877000Y-13406000D01*
X16877000Y-13426000D01*
X16623000Y-13426000D01*
X16623000Y-13406000D01*
X15573750Y-13406000D01*
X15415000Y-13564750D01*
X15411928Y-13787000D01*
X15424188Y-13911482D01*
X15460498Y-14031180D01*
X15519463Y-14141494D01*
X15598815Y-14238185D01*
X15601027Y-14240000D01*
X14903711Y-14240000D01*
X14859774Y-14196063D01*
X14690256Y-14082795D01*
X14501898Y-14004774D01*
X14301939Y-13965000D01*
X14098061Y-13965000D01*
X13898102Y-14004774D01*
X13709744Y-14082795D01*
X13540226Y-14196063D01*
X13496289Y-14240000D01*
X12985302Y-14240000D01*
X12770250Y-14024948D01*
X12770250Y-13962811D01*
X12730476Y-13762852D01*
X12652455Y-13574494D01*
X12539187Y-13404976D01*
X12395024Y-13260813D01*
X12225506Y-13147545D01*
X12037148Y-13069524D01*
X11837189Y-13029750D01*
X11775051Y-13029750D01*
X11512303Y-12767002D01*
X11488501Y-12737999D01*
X11372776Y-12643026D01*
X11314031Y-12611626D01*
X11288002Y-12525820D01*
X11229037Y-12415506D01*
X11207284Y-12389000D01*
X11229037Y-12362494D01*
X11288002Y-12252180D01*
X11324312Y-12132482D01*
X11336572Y-12008000D01*
X11336572Y-10992000D01*
X11324312Y-10867518D01*
X11288002Y-10747820D01*
X11229037Y-10637506D01*
X11149685Y-10540815D01*
X11052994Y-10461463D01*
X10942680Y-10402498D01*
X10822982Y-10366188D01*
X10698500Y-10353928D01*
X10568000Y-10353928D01*
X10568000Y-9488072D01*
X11408000Y-9488072D01*
X11532482Y-9475812D01*
X11652180Y-9439502D01*
X11762494Y-9380537D01*
X11859185Y-9301185D01*
X11938537Y-9204494D01*
X11989046Y-9110000D01*
X14426954Y-9110000D01*
X14477463Y-9204494D01*
X14556815Y-9301185D01*
X14653506Y-9380537D01*
X14763820Y-9439502D01*
X14883518Y-9475812D01*
X15008000Y-9488072D01*
X15848000Y-9488072D01*
X15848001Y-10389703D01*
X15805820Y-10402498D01*
X15695506Y-10461463D01*
X15598815Y-10540815D01*
X15519463Y-10637506D01*
X15460498Y-10747820D01*
X15424188Y-10867518D01*
X15411928Y-10992000D01*
X15411928Y-12008000D01*
X15424188Y-12132482D01*
X15460498Y-12252180D01*
X15519463Y-12362494D01*
X15541626Y-12389500D01*
X15519463Y-12416506D01*
X15460498Y-12526820D01*
X15424188Y-12646518D01*
X15411928Y-12771000D01*
X15415000Y-12993250D01*
X15573750Y-13152000D01*
X16623000Y-13152000D01*
X16623000Y-13132000D01*
X16877000Y-13132000D01*
X16877000Y-13152000D01*
X17926250Y-13152000D01*
X18085000Y-12993250D01*
X18088072Y-12771000D01*
X18075812Y-12646518D01*
X18039502Y-12526820D01*
X17980537Y-12416506D01*
X17958374Y-12389500D01*
X17980537Y-12362494D01*
X18039502Y-12252180D01*
X18075812Y-12132482D01*
X18088072Y-12008000D01*
X18088072Y-10992000D01*
X18075812Y-10867518D01*
X18039502Y-10747820D01*
X17980537Y-10637506D01*
X17901185Y-10540815D01*
X17804494Y-10461463D01*
X17694180Y-10402498D01*
X17574482Y-10366188D01*
X17450000Y-10353928D01*
X17368000Y-10353928D01*
X17368000Y-9488072D01*
X18208000Y-9488072D01*
X18332482Y-9475812D01*
X18452180Y-9439502D01*
X18562494Y-9380537D01*
X18659185Y-9301185D01*
X18738537Y-9204494D01*
X18797502Y-9094180D01*
X18833812Y-8974482D01*
X18846072Y-8850000D01*
X18846072Y-7850000D01*
X18833812Y-7725518D01*
X18797502Y-7605820D01*
X18738537Y-7495506D01*
X18659185Y-7398815D01*
X18562494Y-7319463D01*
X18452180Y-7260498D01*
X18332482Y-7224188D01*
X18208000Y-7211928D01*
X15008000Y-7211928D01*
X14883518Y-7224188D01*
X14763820Y-7260498D01*
X14653506Y-7319463D01*
X14556815Y-7398815D01*
X14477463Y-7495506D01*
X14426954Y-7590000D01*
X11989046Y-7590000D01*
X11938537Y-7495506D01*
X11859185Y-7398815D01*
X11762494Y-7319463D01*
X11652180Y-7260498D01*
X11532482Y-7224188D01*
X11408000Y-7211928D01*
X8208000Y-7211928D01*
X8083518Y-7224188D01*
X7963820Y-7260498D01*
X7853506Y-7319463D01*
X7756815Y-7398815D01*
X7677463Y-7495506D01*
X7618498Y-7605820D01*
X7582188Y-7725518D01*
X7569928Y-7850000D01*
X7569928Y-8413270D01*
X6653078Y-9330121D01*
X6703330Y-9208802D01*
X6743104Y-9008843D01*
X6743104Y-8804965D01*
X6703330Y-8605006D01*
X6625309Y-8416648D01*
X6512041Y-8247130D01*
X6468104Y-8203193D01*
X6468104Y-4850000D01*
X7569928Y-4850000D01*
X7582188Y-4974482D01*
X7618498Y-5094180D01*
X7677463Y-5204494D01*
X7756815Y-5301185D01*
X7853506Y-5380537D01*
X7963820Y-5439502D01*
X8083518Y-5475812D01*
X8208000Y-5488072D01*
X9522250Y-5485000D01*
X9681000Y-5326250D01*
X9681000Y-4477000D01*
X9935000Y-4477000D01*
X9935000Y-5326250D01*
X10093750Y-5485000D01*
X11408000Y-5488072D01*
X11532482Y-5475812D01*
X11652180Y-5439502D01*
X11762494Y-5380537D01*
X11859185Y-5301185D01*
X11938537Y-5204494D01*
X11997502Y-5094180D01*
X12033812Y-4974482D01*
X12046072Y-4850000D01*
X14369928Y-4850000D01*
X14382188Y-4974482D01*
X14418498Y-5094180D01*
X14477463Y-5204494D01*
X14556815Y-5301185D01*
X14653506Y-5380537D01*
X14763820Y-5439502D01*
X14883518Y-5475812D01*
X15008000Y-5488072D01*
X16322250Y-5485000D01*
X16481000Y-5326250D01*
X16481000Y-4477000D01*
X16735000Y-4477000D01*
X16735000Y-5326250D01*
X16893750Y-5485000D01*
X18208000Y-5488072D01*
X18332482Y-5475812D01*
X18452180Y-5439502D01*
X18562494Y-5380537D01*
X18659185Y-5301185D01*
X18738537Y-5204494D01*
X18797502Y-5094180D01*
X18833812Y-4974482D01*
X18846072Y-4850000D01*
X18843000Y-4635750D01*
X18684250Y-4477000D01*
X16735000Y-4477000D01*
X16481000Y-4477000D01*
X14531750Y-4477000D01*
X14373000Y-4635750D01*
X14369928Y-4850000D01*
X12046072Y-4850000D01*
X12043000Y-4635750D01*
X11884250Y-4477000D01*
X9935000Y-4477000D01*
X9681000Y-4477000D01*
X7731750Y-4477000D01*
X7573000Y-4635750D01*
X7569928Y-4850000D01*
X6468104Y-4850000D01*
X6468104Y-4206697D01*
X6824801Y-3850000D01*
X7569928Y-3850000D01*
X7573000Y-4064250D01*
X7731750Y-4223000D01*
X9681000Y-4223000D01*
X9681000Y-3373750D01*
X9935000Y-3373750D01*
X9935000Y-4223000D01*
X11884250Y-4223000D01*
X12043000Y-4064250D01*
X12046072Y-3850000D01*
X14369928Y-3850000D01*
X14373000Y-4064250D01*
X14531750Y-4223000D01*
X16481000Y-4223000D01*
X16481000Y-3373750D01*
X16735000Y-3373750D01*
X16735000Y-4223000D01*
X18684250Y-4223000D01*
X18843000Y-4064250D01*
X18846072Y-3850000D01*
X18833812Y-3725518D01*
X18797502Y-3605820D01*
X18738537Y-3495506D01*
X18659185Y-3398815D01*
X18562494Y-3319463D01*
X18452180Y-3260498D01*
X18332482Y-3224188D01*
X18208000Y-3211928D01*
X16893750Y-3215000D01*
X16735000Y-3373750D01*
X16481000Y-3373750D01*
X16322250Y-3215000D01*
X15008000Y-3211928D01*
X14883518Y-3224188D01*
X14763820Y-3260498D01*
X14653506Y-3319463D01*
X14556815Y-3398815D01*
X14477463Y-3495506D01*
X14418498Y-3605820D01*
X14382188Y-3725518D01*
X14369928Y-3850000D01*
X12046072Y-3850000D01*
X12033812Y-3725518D01*
X11997502Y-3605820D01*
X11938537Y-3495506D01*
X11859185Y-3398815D01*
X11762494Y-3319463D01*
X11652180Y-3260498D01*
X11532482Y-3224188D01*
X11408000Y-3211928D01*
X10093750Y-3215000D01*
X9935000Y-3373750D01*
X9681000Y-3373750D01*
X9522250Y-3215000D01*
X8208000Y-3211928D01*
X8083518Y-3224188D01*
X7963820Y-3260498D01*
X7853506Y-3319463D01*
X7756815Y-3398815D01*
X7677463Y-3495506D01*
X7618498Y-3605820D01*
X7582188Y-3725518D01*
X7569928Y-3850000D01*
X6824801Y-3850000D01*
X7914802Y-2760000D01*
X20834954Y-2760000D01*
X20885463Y-2854494D01*
X20885463Y-2854494D01*
G37*
X20885463Y-2854494D02*
X20964815Y-2951185D01*
X21061506Y-3030537D01*
X21171820Y-3089502D01*
X21291518Y-3125812D01*
X21416000Y-3138072D01*
X22240001Y-3138072D01*
X22240000Y-3859985D01*
X22177018Y-3866188D01*
X22057320Y-3902498D01*
X21947006Y-3961463D01*
X21850315Y-4040815D01*
X21770963Y-4137506D01*
X21711998Y-4247820D01*
X21675688Y-4367518D01*
X21663428Y-4492000D01*
X21663428Y-5508000D01*
X21675688Y-5632482D01*
X21711998Y-5752180D01*
X21770963Y-5862494D01*
X21792716Y-5889000D01*
X21770963Y-5915506D01*
X21711998Y-6025820D01*
X21675688Y-6145518D01*
X21663428Y-6270000D01*
X21663428Y-7286000D01*
X21675688Y-7410482D01*
X21711998Y-7530180D01*
X21770963Y-7640494D01*
X21850315Y-7737185D01*
X21947006Y-7816537D01*
X22057320Y-7875502D01*
X22177018Y-7911812D01*
X22240001Y-7918015D01*
X22240001Y-8507199D01*
X21489002Y-9258198D01*
X21459999Y-9282001D01*
X21405027Y-9348985D01*
X21365026Y-9397726D01*
X21318190Y-9485350D01*
X21294454Y-9529756D01*
X21250997Y-9673017D01*
X21240000Y-9784670D01*
X21240000Y-9784680D01*
X21236324Y-9822002D01*
X21240000Y-9859325D01*
X21240000Y-10296289D01*
X21196063Y-10340226D01*
X21082795Y-10509744D01*
X21004774Y-10698102D01*
X20965000Y-10898061D01*
X20965000Y-11101939D01*
X21004774Y-11301898D01*
X21082795Y-11490256D01*
X21196063Y-11659774D01*
X21230744Y-11694455D01*
X18685199Y-14240000D01*
X17898973Y-14240000D01*
X17901185Y-14238185D01*
X17980537Y-14141494D01*
X18039502Y-14031180D01*
X18075812Y-13911482D01*
X18088072Y-13787000D01*
X18085000Y-13564750D01*
X17926250Y-13406000D01*
X16877000Y-13406000D01*
X16877000Y-13426000D01*
X16623000Y-13426000D01*
X16623000Y-13406000D01*
X15573750Y-13406000D01*
X15415000Y-13564750D01*
X15411928Y-13787000D01*
X15424188Y-13911482D01*
X15460498Y-14031180D01*
X15519463Y-14141494D01*
X15598815Y-14238185D01*
X15601027Y-14240000D01*
X14903711Y-14240000D01*
X14859774Y-14196063D01*
X14690256Y-14082795D01*
X14501898Y-14004774D01*
X14301939Y-13965000D01*
X14098061Y-13965000D01*
X13898102Y-14004774D01*
X13709744Y-14082795D01*
X13540226Y-14196063D01*
X13496289Y-14240000D01*
X12985302Y-14240000D01*
X12770250Y-14024948D01*
X12770250Y-13962811D01*
X12730476Y-13762852D01*
X12652455Y-13574494D01*
X12539187Y-13404976D01*
X12395024Y-13260813D01*
X12225506Y-13147545D01*
X12037148Y-13069524D01*
X11837189Y-13029750D01*
X11775051Y-13029750D01*
X11512303Y-12767002D01*
X11488501Y-12737999D01*
X11372776Y-12643026D01*
X11314031Y-12611626D01*
X11288002Y-12525820D01*
X11229037Y-12415506D01*
X11207284Y-12389000D01*
X11229037Y-12362494D01*
X11288002Y-12252180D01*
X11324312Y-12132482D01*
X11336572Y-12008000D01*
X11336572Y-10992000D01*
X11324312Y-10867518D01*
X11288002Y-10747820D01*
X11229037Y-10637506D01*
X11149685Y-10540815D01*
X11052994Y-10461463D01*
X10942680Y-10402498D01*
X10822982Y-10366188D01*
X10698500Y-10353928D01*
X10568000Y-10353928D01*
X10568000Y-9488072D01*
X11408000Y-9488072D01*
X11532482Y-9475812D01*
X11652180Y-9439502D01*
X11762494Y-9380537D01*
X11859185Y-9301185D01*
X11938537Y-9204494D01*
X11989046Y-9110000D01*
X14426954Y-9110000D01*
X14477463Y-9204494D01*
X14556815Y-9301185D01*
X14653506Y-9380537D01*
X14763820Y-9439502D01*
X14883518Y-9475812D01*
X15008000Y-9488072D01*
X15848000Y-9488072D01*
X15848001Y-10389703D01*
X15805820Y-10402498D01*
X15695506Y-10461463D01*
X15598815Y-10540815D01*
X15519463Y-10637506D01*
X15460498Y-10747820D01*
X15424188Y-10867518D01*
X15411928Y-10992000D01*
X15411928Y-12008000D01*
X15424188Y-12132482D01*
X15460498Y-12252180D01*
X15519463Y-12362494D01*
X15541626Y-12389500D01*
X15519463Y-12416506D01*
X15460498Y-12526820D01*
X15424188Y-12646518D01*
X15411928Y-12771000D01*
X15415000Y-12993250D01*
X15573750Y-13152000D01*
X16623000Y-13152000D01*
X16623000Y-13132000D01*
X16877000Y-13132000D01*
X16877000Y-13152000D01*
X17926250Y-13152000D01*
X18085000Y-12993250D01*
X18088072Y-12771000D01*
X18075812Y-12646518D01*
X18039502Y-12526820D01*
X17980537Y-12416506D01*
X17958374Y-12389500D01*
X17980537Y-12362494D01*
X18039502Y-12252180D01*
X18075812Y-12132482D01*
X18088072Y-12008000D01*
X18088072Y-10992000D01*
X18075812Y-10867518D01*
X18039502Y-10747820D01*
X17980537Y-10637506D01*
X17901185Y-10540815D01*
X17804494Y-10461463D01*
X17694180Y-10402498D01*
X17574482Y-10366188D01*
X17450000Y-10353928D01*
X17368000Y-10353928D01*
X17368000Y-9488072D01*
X18208000Y-9488072D01*
X18332482Y-9475812D01*
X18452180Y-9439502D01*
X18562494Y-9380537D01*
X18659185Y-9301185D01*
X18738537Y-9204494D01*
X18797502Y-9094180D01*
X18833812Y-8974482D01*
X18846072Y-8850000D01*
X18846072Y-7850000D01*
X18833812Y-7725518D01*
X18797502Y-7605820D01*
X18738537Y-7495506D01*
X18659185Y-7398815D01*
X18562494Y-7319463D01*
X18452180Y-7260498D01*
X18332482Y-7224188D01*
X18208000Y-7211928D01*
X15008000Y-7211928D01*
X14883518Y-7224188D01*
X14763820Y-7260498D01*
X14653506Y-7319463D01*
X14556815Y-7398815D01*
X14477463Y-7495506D01*
X14426954Y-7590000D01*
X11989046Y-7590000D01*
X11938537Y-7495506D01*
X11859185Y-7398815D01*
X11762494Y-7319463D01*
X11652180Y-7260498D01*
X11532482Y-7224188D01*
X11408000Y-7211928D01*
X8208000Y-7211928D01*
X8083518Y-7224188D01*
X7963820Y-7260498D01*
X7853506Y-7319463D01*
X7756815Y-7398815D01*
X7677463Y-7495506D01*
X7618498Y-7605820D01*
X7582188Y-7725518D01*
X7569928Y-7850000D01*
X7569928Y-8413270D01*
X6653078Y-9330121D01*
X6703330Y-9208802D01*
X6743104Y-9008843D01*
X6743104Y-8804965D01*
X6703330Y-8605006D01*
X6625309Y-8416648D01*
X6512041Y-8247130D01*
X6468104Y-8203193D01*
X6468104Y-4850000D01*
X7569928Y-4850000D01*
X7582188Y-4974482D01*
X7618498Y-5094180D01*
X7677463Y-5204494D01*
X7756815Y-5301185D01*
X7853506Y-5380537D01*
X7963820Y-5439502D01*
X8083518Y-5475812D01*
X8208000Y-5488072D01*
X9522250Y-5485000D01*
X9681000Y-5326250D01*
X9681000Y-4477000D01*
X9935000Y-4477000D01*
X9935000Y-5326250D01*
X10093750Y-5485000D01*
X11408000Y-5488072D01*
X11532482Y-5475812D01*
X11652180Y-5439502D01*
X11762494Y-5380537D01*
X11859185Y-5301185D01*
X11938537Y-5204494D01*
X11997502Y-5094180D01*
X12033812Y-4974482D01*
X12046072Y-4850000D01*
X14369928Y-4850000D01*
X14382188Y-4974482D01*
X14418498Y-5094180D01*
X14477463Y-5204494D01*
X14556815Y-5301185D01*
X14653506Y-5380537D01*
X14763820Y-5439502D01*
X14883518Y-5475812D01*
X15008000Y-5488072D01*
X16322250Y-5485000D01*
X16481000Y-5326250D01*
X16481000Y-4477000D01*
X16735000Y-4477000D01*
X16735000Y-5326250D01*
X16893750Y-5485000D01*
X18208000Y-5488072D01*
X18332482Y-5475812D01*
X18452180Y-5439502D01*
X18562494Y-5380537D01*
X18659185Y-5301185D01*
X18738537Y-5204494D01*
X18797502Y-5094180D01*
X18833812Y-4974482D01*
X18846072Y-4850000D01*
X18843000Y-4635750D01*
X18684250Y-4477000D01*
X16735000Y-4477000D01*
X16481000Y-4477000D01*
X14531750Y-4477000D01*
X14373000Y-4635750D01*
X14369928Y-4850000D01*
X12046072Y-4850000D01*
X12043000Y-4635750D01*
X11884250Y-4477000D01*
X9935000Y-4477000D01*
X9681000Y-4477000D01*
X7731750Y-4477000D01*
X7573000Y-4635750D01*
X7569928Y-4850000D01*
X6468104Y-4850000D01*
X6468104Y-4206697D01*
X6824801Y-3850000D01*
X7569928Y-3850000D01*
X7573000Y-4064250D01*
X7731750Y-4223000D01*
X9681000Y-4223000D01*
X9681000Y-3373750D01*
X9935000Y-3373750D01*
X9935000Y-4223000D01*
X11884250Y-4223000D01*
X12043000Y-4064250D01*
X12046072Y-3850000D01*
X14369928Y-3850000D01*
X14373000Y-4064250D01*
X14531750Y-4223000D01*
X16481000Y-4223000D01*
X16481000Y-3373750D01*
X16735000Y-3373750D01*
X16735000Y-4223000D01*
X18684250Y-4223000D01*
X18843000Y-4064250D01*
X18846072Y-3850000D01*
X18833812Y-3725518D01*
X18797502Y-3605820D01*
X18738537Y-3495506D01*
X18659185Y-3398815D01*
X18562494Y-3319463D01*
X18452180Y-3260498D01*
X18332482Y-3224188D01*
X18208000Y-3211928D01*
X16893750Y-3215000D01*
X16735000Y-3373750D01*
X16481000Y-3373750D01*
X16322250Y-3215000D01*
X15008000Y-3211928D01*
X14883518Y-3224188D01*
X14763820Y-3260498D01*
X14653506Y-3319463D01*
X14556815Y-3398815D01*
X14477463Y-3495506D01*
X14418498Y-3605820D01*
X14382188Y-3725518D01*
X14369928Y-3850000D01*
X12046072Y-3850000D01*
X12033812Y-3725518D01*
X11997502Y-3605820D01*
X11938537Y-3495506D01*
X11859185Y-3398815D01*
X11762494Y-3319463D01*
X11652180Y-3260498D01*
X11532482Y-3224188D01*
X11408000Y-3211928D01*
X10093750Y-3215000D01*
X9935000Y-3373750D01*
X9681000Y-3373750D01*
X9522250Y-3215000D01*
X8208000Y-3211928D01*
X8083518Y-3224188D01*
X7963820Y-3260498D01*
X7853506Y-3319463D01*
X7756815Y-3398815D01*
X7677463Y-3495506D01*
X7618498Y-3605820D01*
X7582188Y-3725518D01*
X7569928Y-3850000D01*
X6824801Y-3850000D01*
X7914802Y-2760000D01*
X20834954Y-2760000D01*
X20885463Y-2854494D01*
G36*
X1269463Y-2854494D02*
G01*
X1348815Y-2951185D01*
X1445506Y-3030537D01*
X1555820Y-3089502D01*
X1675518Y-3125812D01*
X1800000Y-3138072D01*
X2640000Y-3138072D01*
X2640001Y-5362668D01*
X2636324Y-5400000D01*
X2640001Y-5437333D01*
X2650998Y-5548986D01*
X2659109Y-5575724D01*
X2661928Y-5585018D01*
X2661928Y-6508000D01*
X2674188Y-6632482D01*
X2710498Y-6752180D01*
X2769463Y-6862494D01*
X2791626Y-6889500D01*
X2769463Y-6916506D01*
X2710498Y-7026820D01*
X2674188Y-7146518D01*
X2661928Y-7271000D01*
X2665000Y-7493250D01*
X2823750Y-7652000D01*
X3873000Y-7652000D01*
X3873000Y-7632000D01*
X4127000Y-7632000D01*
X4127000Y-7652000D01*
X4147000Y-7652000D01*
X4147000Y-7906000D01*
X4127000Y-7906000D01*
X4127000Y-7926000D01*
X3873000Y-7926000D01*
X3873000Y-7906000D01*
X2823750Y-7906000D01*
X2665000Y-8064750D01*
X2661928Y-8287000D01*
X2674188Y-8411482D01*
X2682839Y-8440000D01*
X103711Y-8440000D01*
X59774Y-8396063D01*
X-109744Y-8282795D01*
X-298102Y-8204774D01*
X-498061Y-8165000D01*
X-589698Y-8165000D01*
X-1487696Y-7267003D01*
X-1511499Y-7237999D01*
X-1627224Y-7143026D01*
X-1685969Y-7111626D01*
X-1711998Y-7025820D01*
X-1770963Y-6915506D01*
X-1792716Y-6889000D01*
X-1770963Y-6862494D01*
X-1711998Y-6752180D01*
X-1675688Y-6632482D01*
X-1663428Y-6508000D01*
X-1663428Y-5492000D01*
X-1675688Y-5367518D01*
X-1711998Y-5247820D01*
X-1770963Y-5137506D01*
X-1850315Y-5040815D01*
X-1947006Y-4961463D01*
X-2057320Y-4902498D01*
X-2177018Y-4866188D01*
X-2301500Y-4853928D01*
X-2640000Y-4853928D01*
X-2640000Y-3138072D01*
X-1800000Y-3138072D01*
X-1675518Y-3125812D01*
X-1555820Y-3089502D01*
X-1445506Y-3030537D01*
X-1348815Y-2951185D01*
X-1269463Y-2854494D01*
X-1218954Y-2760000D01*
X1218954Y-2760000D01*
X1269463Y-2854494D01*
X1269463Y-2854494D01*
G37*
X1269463Y-2854494D02*
X1348815Y-2951185D01*
X1445506Y-3030537D01*
X1555820Y-3089502D01*
X1675518Y-3125812D01*
X1800000Y-3138072D01*
X2640000Y-3138072D01*
X2640001Y-5362668D01*
X2636324Y-5400000D01*
X2640001Y-5437333D01*
X2650998Y-5548986D01*
X2659109Y-5575724D01*
X2661928Y-5585018D01*
X2661928Y-6508000D01*
X2674188Y-6632482D01*
X2710498Y-6752180D01*
X2769463Y-6862494D01*
X2791626Y-6889500D01*
X2769463Y-6916506D01*
X2710498Y-7026820D01*
X2674188Y-7146518D01*
X2661928Y-7271000D01*
X2665000Y-7493250D01*
X2823750Y-7652000D01*
X3873000Y-7652000D01*
X3873000Y-7632000D01*
X4127000Y-7632000D01*
X4127000Y-7652000D01*
X4147000Y-7652000D01*
X4147000Y-7906000D01*
X4127000Y-7906000D01*
X4127000Y-7926000D01*
X3873000Y-7926000D01*
X3873000Y-7906000D01*
X2823750Y-7906000D01*
X2665000Y-8064750D01*
X2661928Y-8287000D01*
X2674188Y-8411482D01*
X2682839Y-8440000D01*
X103711Y-8440000D01*
X59774Y-8396063D01*
X-109744Y-8282795D01*
X-298102Y-8204774D01*
X-498061Y-8165000D01*
X-589698Y-8165000D01*
X-1487696Y-7267003D01*
X-1511499Y-7237999D01*
X-1627224Y-7143026D01*
X-1685969Y-7111626D01*
X-1711998Y-7025820D01*
X-1770963Y-6915506D01*
X-1792716Y-6889000D01*
X-1770963Y-6862494D01*
X-1711998Y-6752180D01*
X-1675688Y-6632482D01*
X-1663428Y-6508000D01*
X-1663428Y-5492000D01*
X-1675688Y-5367518D01*
X-1711998Y-5247820D01*
X-1770963Y-5137506D01*
X-1850315Y-5040815D01*
X-1947006Y-4961463D01*
X-2057320Y-4902498D01*
X-2177018Y-4866188D01*
X-2301500Y-4853928D01*
X-2640000Y-4853928D01*
X-2640000Y-3138072D01*
X-1800000Y-3138072D01*
X-1675518Y-3125812D01*
X-1555820Y-3089502D01*
X-1445506Y-3030537D01*
X-1348815Y-2951185D01*
X-1269463Y-2854494D01*
X-1218954Y-2760000D01*
X1218954Y-2760000D01*
X1269463Y-2854494D01*
M02*
