G04 #@! TF.GenerationSoftware,KiCad,Pcbnew,(5.1.4)-1*
G04 #@! TF.CreationDate,2019-11-04T21:22:20-05:00*
G04 #@! TF.ProjectId,ButtonBoard,42757474-6f6e-4426-9f61-72642e6b6963,rev?*
G04 #@! TF.SameCoordinates,Original*
G04 #@! TF.FileFunction,Soldermask,Bot*
G04 #@! TF.FilePolarity,Negative*
%FSLAX46Y46*%
G04 Gerber Fmt 4.6, Leading zero omitted, Abs format (unit mm)*
G04 Created by KiCad (PCBNEW (5.1.4)-1) date 2019-11-04 21:22:20*
%MOMM*%
%LPD*%
G04 APERTURE LIST*
%ADD10C,1.000000*%
G04 APERTURE END LIST*
D10*
G36*
X3365500Y-13825500D02*
G01*
X1714500Y-13825500D01*
X1714500Y-12174500D01*
X3365500Y-12174500D01*
X3365500Y-13825500D01*
X3365500Y-13825500D01*
G37*
G36*
X-2299212Y-12206223D02*
G01*
X-2148978Y-12268452D01*
X-2013777Y-12358790D01*
X-1898790Y-12473777D01*
X-1808452Y-12608978D01*
X-1746223Y-12759212D01*
X-1714500Y-12918694D01*
X-1714500Y-13081306D01*
X-1746223Y-13240788D01*
X-1808452Y-13391022D01*
X-1898790Y-13526223D01*
X-2013777Y-13641210D01*
X-2148978Y-13731548D01*
X-2299212Y-13793777D01*
X-2458694Y-13825500D01*
X-2621306Y-13825500D01*
X-2780788Y-13793777D01*
X-2931022Y-13731548D01*
X-3066223Y-13641210D01*
X-3181210Y-13526223D01*
X-3271548Y-13391022D01*
X-3333777Y-13240788D01*
X-3365500Y-13081306D01*
X-3365500Y-12918694D01*
X-3333777Y-12759212D01*
X-3271548Y-12608978D01*
X-3181210Y-12473777D01*
X-3066223Y-12358790D01*
X-2931022Y-12268452D01*
X-2780788Y-12206223D01*
X-2621306Y-12174500D01*
X-2458694Y-12174500D01*
X-2299212Y-12206223D01*
X-2299212Y-12206223D01*
G37*
G36*
X240788Y-12206223D02*
G01*
X391022Y-12268452D01*
X526223Y-12358790D01*
X641210Y-12473777D01*
X731548Y-12608978D01*
X793777Y-12759212D01*
X825500Y-12918694D01*
X825500Y-13081306D01*
X793777Y-13240788D01*
X731548Y-13391022D01*
X641210Y-13526223D01*
X526223Y-13641210D01*
X391022Y-13731548D01*
X240788Y-13793777D01*
X81306Y-13825500D01*
X-81306Y-13825500D01*
X-240788Y-13793777D01*
X-391022Y-13731548D01*
X-526223Y-13641210D01*
X-641210Y-13526223D01*
X-731548Y-13391022D01*
X-793777Y-13240788D01*
X-825500Y-13081306D01*
X-825500Y-12918694D01*
X-793777Y-12759212D01*
X-731548Y-12608978D01*
X-641210Y-12473777D01*
X-526223Y-12358790D01*
X-391022Y-12268452D01*
X-240788Y-12206223D01*
X-81306Y-12174500D01*
X81306Y-12174500D01*
X240788Y-12206223D01*
X240788Y-12206223D01*
G37*
G36*
X17450000Y-13787000D02*
G01*
X16050000Y-13787000D01*
X16050000Y-12771000D01*
X17450000Y-12771000D01*
X17450000Y-13787000D01*
X17450000Y-13787000D01*
G37*
G36*
X10698500Y-13786000D02*
G01*
X9301500Y-13786000D01*
X9301500Y-12770000D01*
X10698500Y-12770000D01*
X10698500Y-13786000D01*
X10698500Y-13786000D01*
G37*
G36*
X28510788Y-11006223D02*
G01*
X28661022Y-11068452D01*
X28796223Y-11158790D01*
X28911210Y-11273777D01*
X29001548Y-11408978D01*
X29063777Y-11559212D01*
X29095500Y-11718694D01*
X29095500Y-11881306D01*
X29063777Y-12040788D01*
X29001548Y-12191022D01*
X28911210Y-12326223D01*
X28796223Y-12441210D01*
X28661022Y-12531548D01*
X28510788Y-12593777D01*
X28351306Y-12625500D01*
X28188694Y-12625500D01*
X28029212Y-12593777D01*
X27878978Y-12531548D01*
X27743777Y-12441210D01*
X27628790Y-12326223D01*
X27538452Y-12191022D01*
X27476223Y-12040788D01*
X27444500Y-11881306D01*
X27444500Y-11718694D01*
X27476223Y-11559212D01*
X27538452Y-11408978D01*
X27628790Y-11273777D01*
X27743777Y-11158790D01*
X27878978Y-11068452D01*
X28029212Y-11006223D01*
X28188694Y-10974500D01*
X28351306Y-10974500D01*
X28510788Y-11006223D01*
X28510788Y-11006223D01*
G37*
G36*
X26555500Y-12625500D02*
G01*
X24904500Y-12625500D01*
X24904500Y-10974500D01*
X26555500Y-10974500D01*
X26555500Y-12625500D01*
X26555500Y-12625500D01*
G37*
G36*
X10698500Y-12008000D02*
G01*
X9301500Y-12008000D01*
X9301500Y-10992000D01*
X10698500Y-10992000D01*
X10698500Y-12008000D01*
X10698500Y-12008000D01*
G37*
G36*
X17450000Y-12008000D02*
G01*
X16050000Y-12008000D01*
X16050000Y-10992000D01*
X17450000Y-10992000D01*
X17450000Y-12008000D01*
X17450000Y-12008000D01*
G37*
G36*
X18208000Y-8850000D02*
G01*
X15008000Y-8850000D01*
X15008000Y-7850000D01*
X18208000Y-7850000D01*
X18208000Y-8850000D01*
X18208000Y-8850000D01*
G37*
G36*
X11408000Y-8850000D02*
G01*
X8208000Y-8850000D01*
X8208000Y-7850000D01*
X11408000Y-7850000D01*
X11408000Y-8850000D01*
X11408000Y-8850000D01*
G37*
G36*
X4700000Y-8287000D02*
G01*
X3300000Y-8287000D01*
X3300000Y-7271000D01*
X4700000Y-7271000D01*
X4700000Y-8287000D01*
X4700000Y-8287000D01*
G37*
G36*
X-2301500Y-8286000D02*
G01*
X-3698500Y-8286000D01*
X-3698500Y-7270000D01*
X-2301500Y-7270000D01*
X-2301500Y-8286000D01*
X-2301500Y-8286000D01*
G37*
G36*
X30700000Y-7287000D02*
G01*
X29300000Y-7287000D01*
X29300000Y-6271000D01*
X30700000Y-6271000D01*
X30700000Y-7287000D01*
X30700000Y-7287000D01*
G37*
G36*
X23698500Y-7286000D02*
G01*
X22301500Y-7286000D01*
X22301500Y-6270000D01*
X23698500Y-6270000D01*
X23698500Y-7286000D01*
X23698500Y-7286000D01*
G37*
G36*
X4700000Y-6508000D02*
G01*
X3300000Y-6508000D01*
X3300000Y-5492000D01*
X4700000Y-5492000D01*
X4700000Y-6508000D01*
X4700000Y-6508000D01*
G37*
G36*
X-2301500Y-6508000D02*
G01*
X-3698500Y-6508000D01*
X-3698500Y-5492000D01*
X-2301500Y-5492000D01*
X-2301500Y-6508000D01*
X-2301500Y-6508000D01*
G37*
G36*
X23698500Y-5508000D02*
G01*
X22301500Y-5508000D01*
X22301500Y-4492000D01*
X23698500Y-4492000D01*
X23698500Y-5508000D01*
X23698500Y-5508000D01*
G37*
G36*
X30700000Y-5508000D02*
G01*
X29300000Y-5508000D01*
X29300000Y-4492000D01*
X30700000Y-4492000D01*
X30700000Y-5508000D01*
X30700000Y-5508000D01*
G37*
G36*
X18208000Y-4850000D02*
G01*
X15008000Y-4850000D01*
X15008000Y-3850000D01*
X18208000Y-3850000D01*
X18208000Y-4850000D01*
X18208000Y-4850000D01*
G37*
G36*
X11408000Y-4850000D02*
G01*
X8208000Y-4850000D01*
X8208000Y-3850000D01*
X11408000Y-3850000D01*
X11408000Y-4850000D01*
X11408000Y-4850000D01*
G37*
G36*
X24616000Y-2500000D02*
G01*
X21416000Y-2500000D01*
X21416000Y-1500000D01*
X24616000Y-1500000D01*
X24616000Y-2500000D01*
X24616000Y-2500000D01*
G37*
G36*
X5000000Y-2500000D02*
G01*
X1800000Y-2500000D01*
X1800000Y-1500000D01*
X5000000Y-1500000D01*
X5000000Y-2500000D01*
X5000000Y-2500000D01*
G37*
G36*
X-1800000Y-2500000D02*
G01*
X-5000000Y-2500000D01*
X-5000000Y-1500000D01*
X-1800000Y-1500000D01*
X-1800000Y-2500000D01*
X-1800000Y-2500000D01*
G37*
G36*
X31416000Y-2500000D02*
G01*
X28216000Y-2500000D01*
X28216000Y-1500000D01*
X31416000Y-1500000D01*
X31416000Y-2500000D01*
X31416000Y-2500000D01*
G37*
G36*
X5000000Y1500000D02*
G01*
X1800000Y1500000D01*
X1800000Y2500000D01*
X5000000Y2500000D01*
X5000000Y1500000D01*
X5000000Y1500000D01*
G37*
G36*
X-1800000Y1500000D02*
G01*
X-5000000Y1500000D01*
X-5000000Y2500000D01*
X-1800000Y2500000D01*
X-1800000Y1500000D01*
X-1800000Y1500000D01*
G37*
G36*
X31416000Y1500000D02*
G01*
X28216000Y1500000D01*
X28216000Y2500000D01*
X31416000Y2500000D01*
X31416000Y1500000D01*
X31416000Y1500000D01*
G37*
G36*
X24616000Y1500000D02*
G01*
X21416000Y1500000D01*
X21416000Y2500000D01*
X24616000Y2500000D01*
X24616000Y1500000D01*
X24616000Y1500000D01*
G37*
M02*
