G04 #@! TF.GenerationSoftware,KiCad,Pcbnew,(5.1.4)-1*
G04 #@! TF.CreationDate,2019-11-04T21:22:20-05:00*
G04 #@! TF.ProjectId,ButtonBoard,42757474-6f6e-4426-9f61-72642e6b6963,rev?*
G04 #@! TF.SameCoordinates,Original*
G04 #@! TF.FileFunction,Legend,Top*
G04 #@! TF.FilePolarity,Positive*
%FSLAX46Y46*%
G04 Gerber Fmt 4.6, Leading zero omitted, Abs format (unit mm)*
G04 Created by KiCad (PCBNEW (5.1.4)-1) date 2019-11-04 21:22:20*
%MOMM*%
%LPD*%
G04 APERTURE LIST*
%ADD10C,0.150000*%
%ADD11C,0.127000*%
%ADD12C,0.100000*%
G04 APERTURE END LIST*
D10*
X9519047Y372619D02*
X9519047Y1372619D01*
X9900000Y1372619D01*
X9995238Y1325000D01*
X10042857Y1277380D01*
X10090476Y1182142D01*
X10090476Y1039285D01*
X10042857Y944047D01*
X9995238Y896428D01*
X9900000Y848809D01*
X9519047Y848809D01*
X11090476Y372619D02*
X10757142Y848809D01*
X10519047Y372619D02*
X10519047Y1372619D01*
X10900000Y1372619D01*
X10995238Y1325000D01*
X11042857Y1277380D01*
X11090476Y1182142D01*
X11090476Y1039285D01*
X11042857Y944047D01*
X10995238Y896428D01*
X10900000Y848809D01*
X10519047Y848809D01*
X11519047Y896428D02*
X11852380Y896428D01*
X11995238Y372619D02*
X11519047Y372619D01*
X11519047Y1372619D01*
X11995238Y1372619D01*
X12280952Y1372619D02*
X12852380Y1372619D01*
X12566666Y372619D02*
X12566666Y1372619D01*
X13376190Y1372619D02*
X13566666Y1372619D01*
X13661904Y1325000D01*
X13757142Y1229761D01*
X13804761Y1039285D01*
X13804761Y705952D01*
X13757142Y515476D01*
X13661904Y420238D01*
X13566666Y372619D01*
X13376190Y372619D01*
X13280952Y420238D01*
X13185714Y515476D01*
X13138095Y705952D01*
X13138095Y1039285D01*
X13185714Y1229761D01*
X13280952Y1325000D01*
X13376190Y1372619D01*
X14090476Y1372619D02*
X14661904Y1372619D01*
X14376190Y372619D02*
X14376190Y1372619D01*
X15185714Y848809D02*
X15185714Y372619D01*
X14852380Y1372619D02*
X15185714Y848809D01*
X15519047Y1372619D01*
X15852380Y372619D02*
X15852380Y1372619D01*
X16233333Y1372619D01*
X16328571Y1325000D01*
X16376190Y1277380D01*
X16423809Y1182142D01*
X16423809Y1039285D01*
X16376190Y944047D01*
X16328571Y896428D01*
X16233333Y848809D01*
X15852380Y848809D01*
X16852380Y896428D02*
X17185714Y896428D01*
X17328571Y372619D02*
X16852380Y372619D01*
X16852380Y1372619D01*
X17328571Y1372619D01*
X11614285Y-753571D02*
X11280952Y-753571D01*
X11280952Y-1277380D02*
X11280952Y-277380D01*
X11757142Y-277380D01*
X12709523Y-1277380D02*
X12376190Y-801190D01*
X12138095Y-1277380D02*
X12138095Y-277380D01*
X12519047Y-277380D01*
X12614285Y-325000D01*
X12661904Y-372619D01*
X12709523Y-467857D01*
X12709523Y-610714D01*
X12661904Y-705952D01*
X12614285Y-753571D01*
X12519047Y-801190D01*
X12138095Y-801190D01*
X13328571Y-277380D02*
X13519047Y-277380D01*
X13614285Y-325000D01*
X13709523Y-420238D01*
X13757142Y-610714D01*
X13757142Y-944047D01*
X13709523Y-1134523D01*
X13614285Y-1229761D01*
X13519047Y-1277380D01*
X13328571Y-1277380D01*
X13233333Y-1229761D01*
X13138095Y-1134523D01*
X13090476Y-944047D01*
X13090476Y-610714D01*
X13138095Y-420238D01*
X13233333Y-325000D01*
X13328571Y-277380D01*
X14185714Y-1277380D02*
X14185714Y-277380D01*
X14757142Y-1277380D01*
X14757142Y-277380D01*
X15090476Y-277380D02*
X15661904Y-277380D01*
X15376190Y-1277380D02*
X15376190Y-277380D01*
X3064285Y-16278571D02*
X2564285Y-15564285D01*
X2207142Y-16278571D02*
X2207142Y-14778571D01*
X2778571Y-14778571D01*
X2921428Y-14850000D01*
X2992857Y-14921428D01*
X3064285Y-15064285D01*
X3064285Y-15278571D01*
X2992857Y-15421428D01*
X2921428Y-15492857D01*
X2778571Y-15564285D01*
X2207142Y-15564285D01*
X-499999Y-16278571D02*
X-499999Y-14778571D01*
X0Y-15850000D01*
X500000Y-14778571D01*
X500000Y-16278571D01*
X-2135714Y-16278571D02*
X-2850000Y-16278571D01*
X-2850000Y-14778571D01*
X27438095Y-14342857D02*
X28961904Y-14342857D01*
X25038095Y-14342857D02*
X26561904Y-14342857D01*
X25800000Y-15104761D02*
X25800000Y-13580952D01*
D11*
X4889000Y-8761000D02*
X3111000Y-8761000D01*
X3111000Y-8761000D02*
X3111000Y-5459000D01*
X3111000Y-5459000D02*
X4889000Y-5459000D01*
X4889000Y-5459000D02*
X4889000Y-8761000D01*
X18889000Y-15540000D02*
X17111000Y-15540000D01*
X17111000Y-15540000D02*
X17111000Y-12238000D01*
X17111000Y-12238000D02*
X18889000Y-12238000D01*
X18889000Y-12238000D02*
X18889000Y-15540000D01*
X31889000Y-4459000D02*
X31889000Y-7761000D01*
X30111000Y-4459000D02*
X31889000Y-4459000D01*
X30111000Y-7761000D02*
X30111000Y-4459000D01*
X31889000Y-7761000D02*
X30111000Y-7761000D01*
X-5389000Y-8540000D02*
X-5389000Y-5238000D01*
X-3611000Y-8540000D02*
X-5389000Y-8540000D01*
X-3611000Y-5238000D02*
X-3611000Y-8540000D01*
X-5389000Y-5238000D02*
X-3611000Y-5238000D01*
X8111000Y-12238000D02*
X9889000Y-12238000D01*
X9889000Y-12238000D02*
X9889000Y-15540000D01*
X9889000Y-15540000D02*
X8111000Y-15540000D01*
X8111000Y-15540000D02*
X8111000Y-12238000D01*
X21111000Y-4238000D02*
X22889000Y-4238000D01*
X22889000Y-4238000D02*
X22889000Y-7540000D01*
X22889000Y-7540000D02*
X21111000Y-7540000D01*
X21111000Y-7540000D02*
X21111000Y-4238000D01*
D12*
X-2775000Y3125000D02*
X-2475000Y3125000D01*
X-2775000Y3125000D02*
X-3125000Y2800000D01*
X-3125000Y2800000D02*
X-3425000Y2800000D01*
X-3425000Y2800000D02*
X-3425000Y3025000D01*
X-3425000Y3025000D02*
X-5075000Y3025000D01*
X3125000Y2575000D02*
X3125000Y3125000D01*
X3125000Y3125000D02*
X2625000Y3125000D01*
X-2725000Y-3125000D02*
X-3125000Y-3125000D01*
X-3125000Y-3125000D02*
X-3125000Y-2725000D01*
X3125000Y-2750000D02*
X3125000Y-3125000D01*
X3125000Y-3125000D02*
X2750000Y-3125000D01*
X16333000Y-9475000D02*
X15958000Y-9475000D01*
X16333000Y-9100000D02*
X16333000Y-9475000D01*
X10083000Y-9475000D02*
X10083000Y-9075000D01*
X10483000Y-9475000D02*
X10083000Y-9475000D01*
X16333000Y-3225000D02*
X15833000Y-3225000D01*
X16333000Y-3775000D02*
X16333000Y-3225000D01*
X9783000Y-3325000D02*
X8133000Y-3325000D01*
X9783000Y-3550000D02*
X9783000Y-3325000D01*
X10083000Y-3550000D02*
X9783000Y-3550000D01*
X10433000Y-3225000D02*
X10083000Y-3550000D01*
X10433000Y-3225000D02*
X10733000Y-3225000D01*
X23641000Y3125000D02*
X23941000Y3125000D01*
X23641000Y3125000D02*
X23291000Y2800000D01*
X23291000Y2800000D02*
X22991000Y2800000D01*
X22991000Y2800000D02*
X22991000Y3025000D01*
X22991000Y3025000D02*
X21341000Y3025000D01*
X29541000Y2575000D02*
X29541000Y3125000D01*
X29541000Y3125000D02*
X29041000Y3125000D01*
X23691000Y-3125000D02*
X23291000Y-3125000D01*
X23291000Y-3125000D02*
X23291000Y-2725000D01*
X29541000Y-2750000D02*
X29541000Y-3125000D01*
X29541000Y-3125000D02*
X29166000Y-3125000D01*
D10*
X29540000Y-13070000D02*
X24460000Y-13070000D01*
X29540000Y-10530000D02*
X29540000Y-13070000D01*
X24460000Y-10530000D02*
X29540000Y-10530000D01*
X24460000Y-13070000D02*
X24460000Y-10530000D01*
D11*
X3810000Y-14270000D02*
X-3810000Y-14270000D01*
X3810000Y-11730000D02*
X3810000Y-14270000D01*
X-3810000Y-11730000D02*
X3810000Y-11730000D01*
X-3810000Y-14270000D02*
X-3810000Y-11730000D01*
D10*
X6057142Y-7276666D02*
X6104761Y-7324285D01*
X6152380Y-7467142D01*
X6152380Y-7562380D01*
X6104761Y-7705238D01*
X6009523Y-7800476D01*
X5914285Y-7848095D01*
X5723809Y-7895714D01*
X5580952Y-7895714D01*
X5390476Y-7848095D01*
X5295238Y-7800476D01*
X5200000Y-7705238D01*
X5152380Y-7562380D01*
X5152380Y-7467142D01*
X5200000Y-7324285D01*
X5247619Y-7276666D01*
X6152380Y-6324285D02*
X6152380Y-6895714D01*
X6152380Y-6610000D02*
X5152380Y-6610000D01*
X5295238Y-6705238D01*
X5390476Y-6800476D01*
X5438095Y-6895714D01*
X20057142Y-14055666D02*
X20104761Y-14103285D01*
X20152380Y-14246142D01*
X20152380Y-14341380D01*
X20104761Y-14484238D01*
X20009523Y-14579476D01*
X19914285Y-14627095D01*
X19723809Y-14674714D01*
X19580952Y-14674714D01*
X19390476Y-14627095D01*
X19295238Y-14579476D01*
X19200000Y-14484238D01*
X19152380Y-14341380D01*
X19152380Y-14246142D01*
X19200000Y-14103285D01*
X19247619Y-14055666D01*
X19152380Y-13722333D02*
X19152380Y-13103285D01*
X19533333Y-13436619D01*
X19533333Y-13293761D01*
X19580952Y-13198523D01*
X19628571Y-13150904D01*
X19723809Y-13103285D01*
X19961904Y-13103285D01*
X20057142Y-13150904D01*
X20104761Y-13198523D01*
X20152380Y-13293761D01*
X20152380Y-13579476D01*
X20104761Y-13674714D01*
X20057142Y-13722333D01*
X33057142Y-6276666D02*
X33104761Y-6324285D01*
X33152380Y-6467142D01*
X33152380Y-6562380D01*
X33104761Y-6705238D01*
X33009523Y-6800476D01*
X32914285Y-6848095D01*
X32723809Y-6895714D01*
X32580952Y-6895714D01*
X32390476Y-6848095D01*
X32295238Y-6800476D01*
X32200000Y-6705238D01*
X32152380Y-6562380D01*
X32152380Y-6467142D01*
X32200000Y-6324285D01*
X32247619Y-6276666D01*
X32152380Y-5371904D02*
X32152380Y-5848095D01*
X32628571Y-5895714D01*
X32580952Y-5848095D01*
X32533333Y-5752857D01*
X32533333Y-5514761D01*
X32580952Y-5419523D01*
X32628571Y-5371904D01*
X32723809Y-5324285D01*
X32961904Y-5324285D01*
X33057142Y-5371904D01*
X33104761Y-5419523D01*
X33152380Y-5514761D01*
X33152380Y-5752857D01*
X33104761Y-5848095D01*
X33057142Y-5895714D01*
X-5747619Y-7055666D02*
X-6223809Y-7389000D01*
X-5747619Y-7627095D02*
X-6747619Y-7627095D01*
X-6747619Y-7246142D01*
X-6700000Y-7150904D01*
X-6652380Y-7103285D01*
X-6557142Y-7055666D01*
X-6414285Y-7055666D01*
X-6319047Y-7103285D01*
X-6271428Y-7150904D01*
X-6223809Y-7246142D01*
X-6223809Y-7627095D01*
X-5747619Y-6103285D02*
X-5747619Y-6674714D01*
X-5747619Y-6389000D02*
X-6747619Y-6389000D01*
X-6604761Y-6484238D01*
X-6509523Y-6579476D01*
X-6461904Y-6674714D01*
X7752380Y-14055666D02*
X7276190Y-14389000D01*
X7752380Y-14627095D02*
X6752380Y-14627095D01*
X6752380Y-14246142D01*
X6800000Y-14150904D01*
X6847619Y-14103285D01*
X6942857Y-14055666D01*
X7085714Y-14055666D01*
X7180952Y-14103285D01*
X7228571Y-14150904D01*
X7276190Y-14246142D01*
X7276190Y-14627095D01*
X6752380Y-13722333D02*
X6752380Y-13103285D01*
X7133333Y-13436619D01*
X7133333Y-13293761D01*
X7180952Y-13198523D01*
X7228571Y-13150904D01*
X7323809Y-13103285D01*
X7561904Y-13103285D01*
X7657142Y-13150904D01*
X7704761Y-13198523D01*
X7752380Y-13293761D01*
X7752380Y-13579476D01*
X7704761Y-13674714D01*
X7657142Y-13722333D01*
X20752380Y-6055666D02*
X20276190Y-6389000D01*
X20752380Y-6627095D02*
X19752380Y-6627095D01*
X19752380Y-6246142D01*
X19800000Y-6150904D01*
X19847619Y-6103285D01*
X19942857Y-6055666D01*
X20085714Y-6055666D01*
X20180952Y-6103285D01*
X20228571Y-6150904D01*
X20276190Y-6246142D01*
X20276190Y-6627095D01*
X19752380Y-5150904D02*
X19752380Y-5627095D01*
X20228571Y-5674714D01*
X20180952Y-5627095D01*
X20133333Y-5531857D01*
X20133333Y-5293761D01*
X20180952Y-5198523D01*
X20228571Y-5150904D01*
X20323809Y-5103285D01*
X20561904Y-5103285D01*
X20657142Y-5150904D01*
X20704761Y-5198523D01*
X20752380Y-5293761D01*
X20752380Y-5531857D01*
X20704761Y-5627095D01*
X20657142Y-5674714D01*
X-561904Y3195238D02*
X-419047Y3147619D01*
X-180952Y3147619D01*
X-85714Y3195238D01*
X-38095Y3242857D01*
X9523Y3338095D01*
X9523Y3433333D01*
X-38095Y3528571D01*
X-85714Y3576190D01*
X-180952Y3623809D01*
X-371428Y3671428D01*
X-466666Y3719047D01*
X-514285Y3766666D01*
X-561904Y3861904D01*
X-561904Y3957142D01*
X-514285Y4052380D01*
X-466666Y4100000D01*
X-371428Y4147619D01*
X-133333Y4147619D01*
X9523Y4100000D01*
X961904Y3147619D02*
X390476Y3147619D01*
X676190Y3147619D02*
X676190Y4147619D01*
X580952Y4004761D01*
X485714Y3909523D01*
X390476Y3861904D01*
X12416095Y-2804761D02*
X12558952Y-2852380D01*
X12797047Y-2852380D01*
X12892285Y-2804761D01*
X12939904Y-2757142D01*
X12987523Y-2661904D01*
X12987523Y-2566666D01*
X12939904Y-2471428D01*
X12892285Y-2423809D01*
X12797047Y-2376190D01*
X12606571Y-2328571D01*
X12511333Y-2280952D01*
X12463714Y-2233333D01*
X12416095Y-2138095D01*
X12416095Y-2042857D01*
X12463714Y-1947619D01*
X12511333Y-1900000D01*
X12606571Y-1852380D01*
X12844666Y-1852380D01*
X12987523Y-1900000D01*
X13320857Y-1852380D02*
X13939904Y-1852380D01*
X13606571Y-2233333D01*
X13749428Y-2233333D01*
X13844666Y-2280952D01*
X13892285Y-2328571D01*
X13939904Y-2423809D01*
X13939904Y-2661904D01*
X13892285Y-2757142D01*
X13844666Y-2804761D01*
X13749428Y-2852380D01*
X13463714Y-2852380D01*
X13368476Y-2804761D01*
X13320857Y-2757142D01*
X25638095Y3195238D02*
X25780952Y3147619D01*
X26019047Y3147619D01*
X26114285Y3195238D01*
X26161904Y3242857D01*
X26209523Y3338095D01*
X26209523Y3433333D01*
X26161904Y3528571D01*
X26114285Y3576190D01*
X26019047Y3623809D01*
X25828571Y3671428D01*
X25733333Y3719047D01*
X25685714Y3766666D01*
X25638095Y3861904D01*
X25638095Y3957142D01*
X25685714Y4052380D01*
X25733333Y4100000D01*
X25828571Y4147619D01*
X26066666Y4147619D01*
X26209523Y4100000D01*
X27114285Y4147619D02*
X26638095Y4147619D01*
X26590476Y3671428D01*
X26638095Y3719047D01*
X26733333Y3766666D01*
X26971428Y3766666D01*
X27066666Y3719047D01*
X27114285Y3671428D01*
X27161904Y3576190D01*
X27161904Y3338095D01*
X27114285Y3242857D01*
X27066666Y3195238D01*
X26971428Y3147619D01*
X26733333Y3147619D01*
X26638095Y3195238D01*
X26590476Y3242857D01*
X25023809Y-10002380D02*
X25023809Y-9002380D01*
X25404761Y-9002380D01*
X25499999Y-9050000D01*
X25547619Y-9097619D01*
X25595238Y-9192857D01*
X25595238Y-9335714D01*
X25547619Y-9430952D01*
X25499999Y-9478571D01*
X25404761Y-9526190D01*
X25023809Y-9526190D01*
X26166666Y-10002380D02*
X26071428Y-9954761D01*
X26023809Y-9907142D01*
X25976190Y-9811904D01*
X25976190Y-9526190D01*
X26023809Y-9430952D01*
X26071428Y-9383333D01*
X26166666Y-9335714D01*
X26309523Y-9335714D01*
X26404761Y-9383333D01*
X26452380Y-9430952D01*
X26499999Y-9526190D01*
X26499999Y-9811904D01*
X26452380Y-9907142D01*
X26404761Y-9954761D01*
X26309523Y-10002380D01*
X26166666Y-10002380D01*
X26833333Y-9335714D02*
X27023809Y-10002380D01*
X27214285Y-9526190D01*
X27404761Y-10002380D01*
X27595238Y-9335714D01*
X28357142Y-9954761D02*
X28261904Y-10002380D01*
X28071428Y-10002380D01*
X27976190Y-9954761D01*
X27928571Y-9859523D01*
X27928571Y-9478571D01*
X27976190Y-9383333D01*
X28071428Y-9335714D01*
X28261904Y-9335714D01*
X28357142Y-9383333D01*
X28404761Y-9478571D01*
X28404761Y-9573809D01*
X27928571Y-9669047D01*
X28833333Y-10002380D02*
X28833333Y-9335714D01*
X28833333Y-9526190D02*
X28880952Y-9430952D01*
X28928571Y-9383333D01*
X29023809Y-9335714D01*
X29119047Y-9335714D01*
X-2261904Y-10228571D02*
X-2119047Y-10276190D01*
X-2071428Y-10323809D01*
X-2023809Y-10419047D01*
X-2023809Y-10561904D01*
X-2071428Y-10657142D01*
X-2119047Y-10704761D01*
X-2214285Y-10752380D01*
X-2595238Y-10752380D01*
X-2595238Y-9752380D01*
X-2261904Y-9752380D01*
X-2166666Y-9800000D01*
X-2119047Y-9847619D01*
X-2071428Y-9942857D01*
X-2071428Y-10038095D01*
X-2119047Y-10133333D01*
X-2166666Y-10180952D01*
X-2261904Y-10228571D01*
X-2595238Y-10228571D01*
X-1166666Y-10085714D02*
X-1166666Y-10752380D01*
X-1595238Y-10085714D02*
X-1595238Y-10609523D01*
X-1547619Y-10704761D01*
X-1452380Y-10752380D01*
X-1309523Y-10752380D01*
X-1214285Y-10704761D01*
X-1166666Y-10657142D01*
X-833333Y-10085714D02*
X-452380Y-10085714D01*
X-690476Y-9752380D02*
X-690476Y-10609523D01*
X-642857Y-10704761D01*
X-547619Y-10752380D01*
X-452380Y-10752380D01*
X-261904Y-10085714D02*
X119047Y-10085714D01*
X-119047Y-9752380D02*
X-119047Y-10609523D01*
X-71428Y-10704761D01*
X23809Y-10752380D01*
X119047Y-10752380D01*
X595238Y-10752380D02*
X500000Y-10704761D01*
X452380Y-10657142D01*
X404761Y-10561904D01*
X404761Y-10276190D01*
X452380Y-10180952D01*
X500000Y-10133333D01*
X595238Y-10085714D01*
X738095Y-10085714D01*
X833333Y-10133333D01*
X880952Y-10180952D01*
X928571Y-10276190D01*
X928571Y-10561904D01*
X880952Y-10657142D01*
X833333Y-10704761D01*
X738095Y-10752380D01*
X595238Y-10752380D01*
X1357142Y-10085714D02*
X1357142Y-10752380D01*
X1357142Y-10180952D02*
X1404761Y-10133333D01*
X1499999Y-10085714D01*
X1642857Y-10085714D01*
X1738095Y-10133333D01*
X1785714Y-10228571D01*
X1785714Y-10752380D01*
X2214285Y-10704761D02*
X2309523Y-10752380D01*
X2499999Y-10752380D01*
X2595238Y-10704761D01*
X2642857Y-10609523D01*
X2642857Y-10561904D01*
X2595238Y-10466666D01*
X2499999Y-10419047D01*
X2357142Y-10419047D01*
X2261904Y-10371428D01*
X2214285Y-10276190D01*
X2214285Y-10228571D01*
X2261904Y-10133333D01*
X2357142Y-10085714D01*
X2499999Y-10085714D01*
X2595238Y-10133333D01*
M02*
