M48
; DRILL file {KiCad (5.1.4)-1} date 11/4/2019 9:22:21 PM
; FORMAT={-:-/ absolute / inch / decimal}
; #@! TF.CreationDate,2019-11-04T21:22:21-05:00
; #@! TF.GenerationSoftware,Kicad,Pcbnew,(5.1.4)-1
; #@! TF.FileFunction,Plated,1,2,PTH
FMAT,2
INCH
T1C0.0157
T2C0.0350
T3C0.0354
%
G90
G05
T1
X-0.0236Y-0.3622
X0.002Y0.0886
X0.0315Y-0.4094
X0.0787Y-0.2913
X0.2247Y-0.3507
X0.2756Y-0.4252
X0.286Y-0.4857
X0.3406Y-0.0217
X0.462Y-0.5537
X0.5197Y-0.252
X0.5591Y-0.5906
X0.6457Y0.0866
X0.8661Y-0.4331
X0.9845Y-0.3383
X1.0413Y0.0886
X1.2972Y-0.1516
T2
X-0.1Y-0.5118
X0.0Y-0.5118
X0.1Y-0.5118
T3
X1.013Y-0.4646
X1.113Y-0.4646
T0
M30
